<?xml version="1.0" encoding="utf-8"?>
<!-- Generator: Adobe Illustrator 22.1.0, SVG Export Plug-In . SVG Version: 6.00 Build 0)  -->
<svg version="1.1"
	 id="svg2319" inkscape:output_extension="org.inkscape.output.svg.inkscape" inkscape:version="0.45.1" sodipodi:docbase="C:\Documents and Settings\HP_Administrateur\Bureau" sodipodi:docname="Red_Zone_Map-fr.svg" sodipodi:version="0.32" xmlns:cc="http://web.resource.org/cc/" xmlns:dc="http://purl.org/dc/elements/1.1/" xmlns:inkscape="http://www.inkscape.org/namespaces/inkscape" xmlns:rdf="http://www.w3.org/1999/02/22-rdf-syntax-ns#" xmlns:sodipodi="http://sodipodi.sourceforge.net/DTD/sodipodi-0.dtd" xmlns:svg="http://www.w3.org/2000/svg"
	 xmlns="http://www.w3.org/2000/svg" xmlns:xlink="http://www.w3.org/1999/xlink" x="0px" y="0px" viewBox="0 0 1421 953"
	 style="enable-background:new 0 0 1421 953;" xml:space="preserve">
<style type="text/css">
	.st0{display:none;}
	.st1{fill:#73E085;}
	.st2{fill:#EDEE00;}
	.st3{fill:#EA3B1C;}
	.st4{fill:#ECED00;}
	.st5{fill:#525BE9;}
</style>
<sodipodi:namedview  bordercolor="#666666" borderopacity="1.0" gridtolerance="10.0" guidetolerance="10.0" height="953px" id="base" inkscape:current-layer="layer1" inkscape:cx="711.62137" inkscape:cy="474.50007" inkscape:pageopacity="0.0" inkscape:pageshadow="2" inkscape:window-height="904" inkscape:window-width="1280" inkscape:window-x="0" inkscape:window-y="22" inkscape:zoom="0.7429171" objecttolerance="10.0" pagecolor="#ffffff" width="1421px">
	</sodipodi:namedview>
<g id="layer2" inkscape:groupmode="layer" inkscape:label="fond vert" class="st0">
</g>
<g id="layer3" inkscape:groupmode="layer" inkscape:label="fond jaune" class="st0">
</g>
<g id="layer4" inkscape:groupmode="layer" inkscape:label="fond rouge" class="st0">
</g>
<g id="layer5" inkscape:groupmode="layer" inkscape:label="frontières" class="st0">
</g>
<g id="layer6" inkscape:groupmode="layer" inkscape:label="fleuves" class="st0">
</g>
<g id="layer7" inkscape:groupmode="layer" inkscape:label="villes et pays">
	<path id="path3314" class="st1" d="M4.3,138.3c6.8,0.7,6.2,4.4,8.2,12.5c1.9,7.8,5.4,9.4,14,9.4c5,0,13.6,6.5,20.3,7.8
		c12.3,2.5,7.5,1.8,0,9.4c-6.7,6.7,2.2,14.7,4.7,17.2c4.8,4.8,8.5,6.9,12.5,10.9c5.6,5.6,11.1,0.4,15.6,9.4
		c3.8,7.6,15.8,1.3,6.2,10.9c-4.5,4.5-0.8,18.8,0,21.8c1.9,7.4,7.4,10.5,10.9,14c5.6,5.6,10.1,8.5,14,12.5
		c4.1,4.1,6.4,11.6,7.8,17.2c1.6,6.6-0.5,17.7-1.6,21.8c-2.2,9-6.3,12.6-10.9,17.2c-4.8,4.8-6.2,12.1-6.2,20.3
		c0,3.5,6.8,13,7.8,17.2c2.1,8.3,6.6,10.3,1.6,20.3c-4.6,9.2-4.8,11-10.9,17.2c-3.8,3.8-12,8.4-17.2,10.9c-2.5,1.2-6.4,2.5-7.8,3.1
		c-5.5,2.8,6.1,22.7,6.2,23.4c1.8,7.2,3.1,13.2,3.1,21.8c0,10.7,0.7,13.8,4.7,21.8c3.1,6.1,4.4,9.7,6.2,17.2c1.7,6.8,0,16.4,0,23.4
		c0,10.7-0.1,13.3-7.8,17.2c-7.4,3.7-1.6,14,1.6,17.2c6.4,6.4,10.2,3.3,14,10.9c3.2,6.5,1.6,16.2,1.6,23.4c0,1.9,4,6.4,4.7,7.8
		l39,135.8c0,8.8,6.2,13.3,6.2,23.4c0,8.6,4.5,14.8,6.2,21.8c1.8,7.1,1.6,14.6,1.6,23.4c0,7.5-0.3,16.8-1.6,21.8
		c-1.7,6.8-7.4,6.3-9.4,14c-2,7.8,12.8,6.2,18.7,6.2c7.8,0,15.7-7.9,18.7-10.9c3.8-3.8,14.3-3.6,18.7-4.7c6.7-1.7,14.3-1.6,21.8-1.6
		c8.3,0,16.6,0,25,0c9.9,0,19.8,0,29.7,0c9.9,0,17.3,1.3,26.5,3.1c9.4,1.9,14.8,4.3,21.8,7.8c9,4.5,17.1,10.9,26.5,15.6
		c7.9,3.9,14.7,13.4,23.4,15.6c10.6,2.7,13.9,3.8,21.8,7.8c8.5,4.2,12.4,7.4,20.3,9.4c8.1,2,17.8,14.5,23.4,18.7
		c4.5,3.4,15.6,10,21.8,12.5c6.5,2.6,7.1,10.3,10.9,14c0.8,0.8,2.1,1,3.1,1.6c4.1,4.1,20.9,1.6,26.5,1.6c8.3,0,15.8,0,23.4-1.6
		c8.4-1.7,14.8-8.8,23.4-10.9c8.2-2.1,19.5,0,28.1,0c9.2,0,13.3-3.1,21.8-3.1c8.8,0,17.7,0,26.5,0c10.5,0,21.2-0.1,29.7,1.6
		c8.6,1.7,17.6,2.4,26.5,4.7c6.5,1.6,14.5,7.9,20.3,9.4c8.2,2.1,16.4,1.6,25,1.6c12.2,0,18.8-2.4,28.1-4.7c8.1-2,16.6-8.8,20.3-12.5
		c7.2-7.2,11.9-7.8,20.3-14c6.3-4.7,17.2-7,26.5-9.4c8.3-2.1,12.1-4.5,18.7-7.8c8.1-4,13.5-7.2,18.7-12.5
		c5.2-5.2,11.5-8.3,15.6-12.5c5-5,8.5-4.6,12.5-12.5c2.9-5.7,4.7-10.9,4.7-20.3c0-6,4.7-9.8,4.7-18.7c0-7.8,1.6-15.1,1.6-23.4
		c0-8.4,1.6-15.6,1.6-23.4c0-7.2,1.6-15.7,1.6-23.4c0-9,1.6-13.9,1.6-21.8c0-8.7,0.2-15.9,3.1-21.8c3.2-6.4,13.1-9.8,18.7-14
		c5.1-3.8,9.1,19.2,9.4,20.3c2,7.9,5.2,11.9,9.4,20.3c2.3,4.7,3.1,15.7,4.7,21.8c2.3,9.2,4.3,13.2,7.8,20.3
		c3.6,7.2,11.5,16.1,15.6,20.3c6.1,6.1,8.8,11.9,14,17.2c4,4,17.7,1.6,23.4,1.6c8.3,0,16.6,0,25,0c9.6,0,15-5.7,23.4-7.8
		c8.7-2.2,12.6-13.7,20.3-15.6c3.7-0.9,11-14.1,12.5-15.6c5.2-5.2,9.9-10.4,12.5-15.6c2.9-5.9,15.1-7.8,21.8-7.8
		c9.7,0,20.9-1.6,31.2-1.6c11.1,0,21.3,8.8,29.7,10.9c10.5,2.6,22.5,16.9,31.2,23.4c8.1,6.1,16.5,16.3,21.8,23.4
		c7.1,9.4,19.8,16.1,29.7,23.4c7.2,5.4,20.2,7,28.1,10.9c10,5,21.3,16.8,28.1,21.8c8.2,6.2,19.4,11.8,26.5,17.2
		c7.6,5.7,14.6,12,25,14c9.8,2,11.3,8.6,14,14c3.9,7.8,7.3,10.2,12.5,17.2c4.3,5.7,5.4,8.5,9.4,12.5v-95.2
		c5.2,6.9-13.4-11.9-21.8-14c-10.7-2.7-11.9-2.5-18.7-9.4c-6.2-6.2,9.2-3.1,15.6-3.1c9.8,0-0.9-14.9-1.6-15.6
		c-4-4-22.3-1.6-28.1-1.6c-10,0-15.7,2.3-23.4-1.6c-5.1-2.5-12.4-12.4-15.6-15.6c-4.3-4.3-10.9-7-15.6-9.4
		c-6.6-3.3-12.9-3.1-21.8-3.1c-10.2,0-15-2.6-23.4-4.7c-8.4-2.1-15.3-3.1-25-3.1c-9.8,0-14.9-2.6-23.4-4.7c-7.4-1.9-17.2-7-26.5-9.4
		c-10.5-2.6-13.9-6.1-20.3-12.5c-5.9-5.9-8.3-9.8-14-15.6c-5.4-5.4-7.9-14.4-9.4-20.3c-2-8.2-8.7-13.4-15.6-20.3
		c-5.3-5.3-9.4-14-10.9-20.3c-2-8.2-7.4-10.4-12.5-17.2c-4-5.3-10.8-10.8-15.6-15.6c-6.2-6.2-11.7-13-17.2-20.3
		c-7-9.4-14-19.2-20.3-29.7c-1.5-2.5-4.2-4.2-6.2-6.2c-1.6-1.6-3.1-3.1-4.7-4.7c-10-10-22.3-17.6-31.2-26.5
		c-8.9-8.9-42-18.7-54.6-21.8c-20.5-5.1-38.4-16.1-59.3-20.3c-3.1-0.6-6.2-1-9.4-1.6c-14.7-2.4-25.8-9.6-37.5-12.5
		c-6.2-1.6-23.1-16.8-26.5-20.3c-6.2-6.2-11.8-13.4-18.7-20.3c-5.7-5.7-14.6-12.6-20.3-14c-13.3-3.3-24-9.1-37.5-12.5
		c-2.1-0.5-4.2-1-6.2-1.6c-14-3.5-31.3-14.1-45.3-18.7c-10-3.3-29.3,0-40.6,0c-9.2,0-14.2-2.4-23.4-4.7c-8.4-2.1-20.7,0-29.7,0
		c-8.3,0-16.6,0-25,0c-10.3,0-12.9-1.7-18.7-4.7c-4.1-2-0.7-17.4,0-20.3c1.6-6.3,4.7-8.7,4.7-18.7c0-10.6-1.3-12.2-6.2-17.2
		c-7.5-7.5-14,7.2-14-7.8c0-7.8,0-15.6,0-23.4c0-9.6,4.2-12,6.2-20.3c2.9-11.7-2-12.8-9.4-10.9c-9.5,2.4-6.1,12.6-14,4.7
		c-5.4-5.4-10.6-10.6-15.6-15.6c-5.2-5.2-11.5-6.5-17.2-9.4c-7.3-3.6-15.6,9.4-18.7,10.9c-5.3,2.7-19,0-25,0
		c-10.8,0-13.7-0.3-18.7,4.7c-1.8,1.8-3.9,26.5-4.7,29.7c-2.3,9.1-9.3,18.7-15.6,25c-8.3,8.3-25.1,5.3-35.9,3.1
		c-15.2-3-33.2-12.8-45.3-21.8c-9.4-7-18-14.2-23.4-25c-4.5-9-10-17.5-15.6-25c-7-9.3-11.8-22.6-6.2-28.1c7.4-7.4,9.7-7.5,12.5-18.7
		c1.1-4.3-7.2-12.7-9.4-15.6c-4.8-6.3-7.8-5-7.8-15.6c0-10.6,0.4-15.2-4.7-20.3c-5.4-5.4-10-6.8-14-10.9c-5.5-5.5-9.8-9.8-15.6-15.6
		c-6.1-6.1-10.8,4.6-14,7.8c-4.1,4.1-9.5,11-15.6,17.2c-7.4,7.4-8.9,11.2-20.3,14c-5.4,1.4-14.3,7.1-18.7,9.4
		c-7.2,3.6-18.5,1.6-26.5,1.6c-7.8,0-14.8-11.7-20.3-17.2c-5.1-5.1-9.3-10.9-14-15.6c-5.9-5.9-8-9.6-12.5-14
		c-6.1-6.1-6.2-7.8-6.2-18.7c0-7.8,0-15.6,0-23.4c0-9.9,0-14.1-4.7-18.7c-3.9-3.9-5.5-10.1-9.4-14c-4.5-4.5-7-10.2-10.9-14
		c-6.4-6.4-6.3-10.5-14-4.7c-7.6,5.7-11.1,8-15.6,12.5c-8.2,8.2-4.9,9.4-18.7,9.4c-5,0-12.8,6.3-18.7,7.8c-3.6,0.9,3.4,2.3,0,3.1
		L4.3,138.3z"/>
	<path id="path3322" class="st2" d="M56.2,168c2.4-4.2,11.6-8.5,15.6-12.5c5-5,11.8-8.7,15.6-12.5c8.2-8.2,6.8-12.5,15.6-12.5
		c5.7,0,15.4,1.6,23.4,1.6c1.4,0,9.6,14.5,10.9,17.2c3.9,7.8,10.4,9.9,15.6,12.5c8.2,4.1,4.4,12.8,15.6,1.6
		c4.3-4.3,8.8-7.8,15.6-7.8c5.5,0,12.9-7.7,17.2-10.9c6.5-4.9,6.1-10.9,15.6-10.9c8.8,0,14-6.7,14,3.1c0,7.6,1.2,14.1,3.1,21.8
		c1.9,7.5,4.7,11.4,4.7,21.8c0,7.1,4.5,10.3,6.2,17.2c1.3,5.2,8.6,13.3,10.9,15.6c3.4,3.4,12,7.3,15.6,10.9
		c3.7,3.7,17.4-14.5,20.5-16.8c7.1-5.3,10.6,14.5,14,19.6c3,4.4,13.5,3.5,18.6,3.5c5,0,9-9.3,15.6-10.9c9-2.3,9.4-10.9,9.4,4.7
		c0,3.9,19.5-3.1,21.8-3.1c9.8,0,12.4,3,18.7,7.8c6.9,5.2,6.2,10.9,6.2,20.3c0,10.5,2.7,14.8,6.2,21.8c3.8,7.6,4.6,9.3,9.4,14
		c1.5,1.5,5.2,2.8,6.8,1.7c1.6-1.1,5.3-0.3,6.9-2.6c1.5-2.3,1.3-5.9,0.9-9.9c-0.3-2.6,1.7-5.5,2.5-6.3l20.4,79.6
		c6.9,6.9,7.2,16.6,14,23.4c6.1,6.1,10.9,9.1,12.5,15.6c2,8-16,4.7-21.8,4.7c-11.2,0-11.3,1.9-17.2,7.8c-6.3,6.3-9,10.9-18.7,10.9
		c-9.3,0-5.9-12.7-18.7-6.2c-2.1,1.1-8.6,16.2-14,20.3c-8.9,6.7,4.9,12.9,9.4,14c6.6,1.6,9.7,13.8,10.9,18.7
		c2.5,10.2,4,13.1,14,15.6c9,2.3,6.2,9.6,6.2,18.7c0,15.4,9.3,6.3,14,1.6c7.1-7.1,13.8-2.4,15.6,4.7c1.8,7.2,16.5,0,21.8,0
		c9.8,0,16,1.3,21.8-1.6c7.9-4,16.8,4.7,25,4.7c10.5,0,15.1,2.6,20.3,7.8c6.7,6.7-4,14,7.8,14c9.4,0,13-2.6,20.3,4.7
		c7.3,7.3,7.4,9.5-1.6,14c-8.7,4.3-6.3,7.8,3.1,12.5c7.6,3.8,22.6-0.6,31.2,1.6c10.1,2.5,21.4,0.7,31.2,3.1c9,2.2,21.9,0,31.2,0
		c9.6,0,17.1-1.6,25-1.6c11.2,0,17.6-1.1,28.1,1.6c2.5,0.6,4.1,3.7,4.7,6.2c13.7,3.4,17.2-3.1,26.5,6.2c6.7,6.7,10.4,18.2,17.2,25
		c6.3,6.3,7.8,10.1,7.8,20.3c0,9.3,17-5.9,17.2-6.2c3.8-7.7,15.8-7.7,23.4-4.7c7.2,2.9,12.3,11.2,15.6,15.6
		c2,2.7,16.5-10.8,18.7-12.5c7.7-5.8,10.6-0.6,17.2-9.4c5.4-7.3,14.1-4.7,20.3-1.6c5.7,2.8,12.5-9.4,10.9-15.6
		c-2-8-24.3,9.3-1.6-7.8c8-6,8.1-19,10.9-4.7c1.3,6.6-10.7,12.8,9.4,7.8c8.7-2.2,13.4-3.4,20.3,0c4.1,2-23,7.8-3.1,7.8
		c5.7,0,17.1-3.1,4.7,0c-17,4.3,7.1,9.1,12.5,7.8c9.2-2.3,10.5,0.5,17.2-6.2c7.4-7.4,15.2,6.1,10.9-10.9
		c-1.2-4.6,18.3,8.4,20.3,12.5c2.2,4.4,4.7,9.1,4.7,14c0,0.4-9.4-19.2-9.4,0c0,3,4.9,5.4,7.8,4.7c5.1-1.3,18.7,12.5,6.2,15.6
		c-4.2,1-13.9-7.7-3.1,3.1c3,3-11.9,4.1-14,6.2c-5.6,5.6,18.1,9.2,18.7,9.4c5.4,1.4,4.9-10.2,6.2-15.6c0.4-1.5,12.1,17.2,12.5,18.7
		c2.9,11.5-12.4,8.6-17.2,6.2c-11.3-5.7-11.4-4.5-20.3,0c-11.3,5.6,7.6,9.4,12.5,9.4c14.1,0,12.3-2.7,6.2,9.4
		c-4.1,8.2-6.6,14.4-10.9,18.7c-4.8,4.8-3-14.2,0-20.3c2.9-5.8-14.3-3.5-17.2-9.4c-2.8-5.6-15.4-3.1-21.8-3.1c-8.8,0-17.7,0-26.5,0
		c-10.2,0-13.1,1.9-18.7,4.7c-7.5,3.8-12.6,7.8-18.7,9.4c-6.6,1.7-11.6,4.5-18.7,6.2c-11,2.7,9.6-9.5,12.5-10.9
		c11.5-5.8-7.3-2.6-12.5,0c-8.4,4.2-14.9,5.8-17.2-3.1c-2.8-11.3-11.3,2.6-14,6.2c-3,4,12.5,11,14,12.5c9,9-7.2,13.1-10.9,14
		c-10.2,2.6-14.9,5.1-17.2,14c-2.6,10.5-10.8,7-20.3,9.4c-10.9,2.7-14.9,7.8-26.5,7.8c-10.7,0-19.5,5.7-26.5,10.9
		c-4.7,3.5-17.8,3.3-23.4,4.7c-9.3,2.3-12.7,8-17.2,12.5c-2.1,2.1-3.1,5.2-4.7,7.8c-8.8,8.8-8.2,9.4-21.8,9.4
		c-9.2,0-15.2-1.5-23.4-3.1c-9.5-1.9-3.9,14-14,14c-8.7,0-1.6-13.2-1.6-18.7c0-7.9,3.1-14.6,3.1-23.4c0-0.5-16.1,17.3-17.2,18.7
		c-4.6,6.2-14.1,10.9-21.8,10.9c-5.2,0-4.3-11.2-9.4-12.5c-8.7-2.2-16.3,1.7-20.3,4.7c-8.6,6.5-13.8,5.8-18.7,15.6
		c-3.4,6.7-12.2,9.2-18.7,12.5c-6.7,3.3-4.8,14.7-17.2,17.2c-6.4,1.3-5.1,14.2-6.2,18.7c-2.1,8.5-17.1,6.2-23.4,6.2
		c-11.6,0-11.1,5.7-14-6.2c-1.4-5.8-15.7-6.2-21.8-6.2c-8.7,0-12.6,9.6-14,15.6c-1.7,6.7-6.7,11.1-12.5,14
		c-10.1,5-10.9,3.1-20.3-1.6c-7.5-3.7-2.9-14.2-12.5-4.7c-3.8,3.8-10.7,2.3-15.6,4.7c-7.9,4,0-17.7,0-26.5c0-7.8-15.5-6.2-21.8-7.8
		c-10.5-2.6-7.8-11.5-7.8-21.8c0-9.5-7.9-12.1-15.6-14c-12.3-3.1-9.8,4.2-1.6,6.2c11,2.7-1.4,9.4-7.8,9.4c-3.4,0-8.5-15.4-9.4-18.7
		c-1.5-6.1,13.9-5.4,17.2-6.2c7-1.8-9-19.9-9.4-20.3c-2.5-2.5,4.7-14.2,4.7-18.7c0-10.6-14.4-5.1-20.3-1.6c-5,3-7.5,10.6-12.5,15.6
		c-8.3,8.3-14.4,7.2-21.8,1.6c-5.5-4.1-9.4-9.5-10.9-15.6c-1.6-6.4,3.3-17.4,4.7-20.3c4.4-8.8,14-5,14-14c0-0.6-18.5-6.2-18.7-6.2
		c-11.2-2.8-9.6-8.5-20.3-3.1c-7.6,3.8-19.6,1.6-28.1,1.6c-6.3,0-13.5-5.7-17.2-9.4c-5.9-5.9-10.6-10.3-15.6-14
		c-8.4-6.3-14-5-25-7.8c-8.1-2-12.7-10.1-18.7-12.5c-7.6-3-8.1-12,0-14c10.6-2.6,16,2,6.2-7.8c-6.3-6.3-9.4-8.2-9.4-18.7
		c0-5-3.1-12.6-3.1-20.3c0-11,0.4-16.1-6.2-9.4c-3.6,3.6-4.7,16.6-4.7,23.4c0,8.4,1.5,15.2,3.1,21.8c3.5,14.1-7.5,4.5-9.4-4.7
		c-1.4-7.1,0-16.1,0-23.4c0-9.4-1.6-13.8-1.6-23.4c0-9.3,6-15.3,10.9-21.8c5.4-7.2,3.3-12.7,9.4-18.7c6.7-6.7,10.8-6.4,6.2-15.6
		c-4-7.9,7.3-12,10.9-15.6c4.9-4.9-3.3-19.1-4.7-21.8c-3.4-6.9-4.7-11.8-4.7-20.3c0-9-3-15.2-4.7-21.8c-1.6-6.4,4.7-22.7,4.7-9.4
		c0,11.2,9.4-2.5,9.4-9.4c0-4.7,7.9-18.2,9.4-21.8c3.2-8,4.1-12.8,7.8-20.3c3.5-7,3.2-13.6,1.6-20.3c-2-7.9-13.4-11.8-17.2-15.6
		c-6.3-6.3-7.8-6.8-7.8-18.7c0-8.1,0.2-16.2-1.6-23.4c-2-8-4.6-13.9-7.8-20.3c-2.7-5.5-10.7-13.8-14-17.2c-5.3-5.3-11.6-8.5-17.2-14
		c-5.9-5.9-10.3-9.8-18.7-14c-7.3-3.6-16.2-6.2-23.4-6.2c-6.2,0-10.5-6.8-15.6-9.4c-4.1-2-11-7.9-14-10.9
		c-5.6-5.6-10.7-17.3-1.6-21.8C50.3,174.8,53.6,174.4,56.2,168z"/>
	<path id="path4351" class="st1" d="M498.8,720.7c0.5-0.2,7.5,5.8,8.8,7.2c1.7,1.7,1.1,7,1.1,9.4c0,1.6,1.7,4.8,1.7,7.7
		c0,4.5,0.6,3.9,5,3.9c4,0,6-0.2,7.7,3.3c1.8,3.7,1,4.4,5.5,4.4c3.7,0,5.8,0.4,8.8,1.1c2.3,0.6,3.3,2.1,3.9,4.4c0.8,3-0.8,5-1.7,6.6
		c-1.1,2.3-4.3,4.4-6.6,4.4c-3.3,0-7.2,0.7-9.9,0c-3.7-0.9-4.5-3.1-7.2-4.4c-3.1-1.6-2.4-3.1-5.5,0c-1.6,1.6-1.8,3.5-3.9,5
		c-2.8,2.1-2,3.3-6.6,3.3c-2,0-6.7-4.9-8.3-6.1c-2.3-1.7-4.4-4-4.4-7.2c0-2.9,0-5.9,0-8.8c0-3.7-1.1-4.9-2.8-6.6
		c-0.6-0.6-1.1-1.1-1.7-1.7c-2-2-3.5-4.7-5-6.6c-2.2-3-1.3-3.1,1.1-5c2.9-2.2,4.2-4.1,5.5-6.6c1.1-2.2,5.5-3.8,7.7-6.1
		C494.3,720.2,495.6,720.1,498.8,720.7z"/>
	<path id="path4446" class="st1" d="M295.2,446.5c6.2-3.1,3,13.6,4.7,20.3c2.5,9.8-4.8,11-10.9,12.5c-10.3,2.6-10.7-1.3-15.6-6.2
		c-3.7-3.7,0.8-17.2,1.6-20.3C277.2,443.5,286.6,443,295.2,446.5z"/>
	<path id="path4444" class="st1" d="M167.2,502.2c0.6-2.6,6.6-0.5,7.7,0c3.4,1.7-2.4,5.3-3.3,5.5c-2.8,0.7-3.6,1.8-5.5,2.8
		c-3.8,1.9-1.3-5.3-0.6-6.1C166.2,503.8,166.6,502.9,167.2,502.2z"/>
	<path id="path4442" class="st1" d="M178.2,496.7c1.6-1.6,1.7,5,3.9,5.5c3.9,1,2.8-2.8,2.8-5.5C184.8,492.6,180.5,494.9,178.2,496.7
		z"/>
	<path id="path4440" class="st1" d="M192.6,493.9c0-1.8-2.2,4.7-0.6,5.5C197.2,502,194.6,495.5,192.6,493.9z"/>
	<path id="path4436" class="st3" d="M190.9,165.6c-1.9-1.9,5.2-1,7.7-1.7c1.9-0.5,1,3.9,2.2,5.5c1.7,2.3,1.5,4.3,2.2,7.2
		c0.6,2.4,0,5.8,0,8.3c0,3.5-0.8,5.6-1.7,7.7c-1,2.6-4.1,5.2-5.5,6.6c-2.3,2.3-4.1,6.1-5,8.3c-1.1,2.8-3.2,3.6-4.4,6.1
		c-1.2,2.4-4.2,4.2-6.1,6.1c-1.7,1.7-3.4,4.5-5,6.1c-1.7,1.7-1.1,6.5-1.1,8.8c0,2.1,1.2,5.3,1.7,7.2c0.6,2.4,0,5.8,0,8.3
		c0,2.9,0,5.9,0,8.8c0,1,5.8,3.6,6.6,4.4c2.8,2.8,3.3,4.2,3.3,8.3c0,3.8,0.4,6.4,1.1,9.4c1.1,4.4,1.4,5.6,3.3,9.4
		c1.6,3.2,3.8,3.7,5.5,7.2c1.7,3.3,4.6,7,7.2,8.3c3.1,1.5,5.3,3.8,8.3,6.1c2.4,1.8,3.4,3.2,6.1,3.9c2.2,0.6,5,3.7,7.2,5
		c2.3,1.4,1.7,3.6,1.7,7.2c0,4,1.5,4.1,2.8,6.6c1.4,2.8,3.4,4.5,5,6.6c1.7,2.3,3,3.5,5,4.4c3,1.5-2.1,6-2.8,6.6
		c-2.1,2.1-3.2,3.2-5,5c-1.7,1.7-1.7,5.5-1.7,7.7c0,1.7,5,3.1,6.6,3.9c3.1,1.6,3.4,2.8,7.2,2.8c3.4,0,4.4,3.4,5.5,5.5
		c1.1,2.3,0.6,5.7,0.6,8.3c0,1.8-3.1,4.2-3.9,5c-1.6,1.6-3.5,2.3-5.5,3.3c-2.5,1.2-4.6,1.1-7.7,1.1c-1.6,0-4.8-4.2-5.5-5
		c-1.4-1.4-2.2-4.7-2.8-6.1c-1.1-2.6-4.1-2.3-6.6-1.7c-3.4,0.8-4.5,0.2-6.1,3.3c-1.3,2.6-1.2,4.7-0.6,7.2c0.8,3.3-0.8,5.5-1.7,7.7
		c-1.4,3.5-2.8,4.2-2.8,8.3c0,3.6,2.2,6.4,2.2,10.5c0,3.1-5.5,4.4-7.7,5c-2.6,0.6-6.2,0-8.8,0c-3.5,0-5.5-1.1-5.5,2.8
		c0,1.2,5.4,3.1,6.1,3.3c3.9,1,7.6,2.6,11,3.3c3.2,0.6,7.2,0,10.5,0c2.2,0,7.2-2.8,9.9-3.9c3.2-1.3,6.1-1.1,9.9-1.1
		c3.1,0,13.2,10.2,16,12.1c2.9,1.9,0,5.5,6.1,5.5c2.1,0,1.8-4,3.3-5.5c0.9-0.9,0.9-3.1,1.1-3.9c3.8-3.8,5.5,3.2,5.5,5
		c0,1.6-1.1,4.2-1.1,7.2c0,2.9,2.1,4,2.8,6.6c0.7,2.7,1.1,5.1,1.1,8.3c0,2.8,0,5.5,0,8.3c0,2.9-0.1,5.7,0.6,8.3
		c0.6,2.5,4.9,4.3,6.1,5.5c0.6,0.6,0.4,7.1,0.6,7.7c0.8,3.4-0.6,5-2.8,6.1c-2.4,1.2-4.9,1.1-7.7,1.1c-3.1,0-6.3,0-9.4,0
		c-3.5,0-5.8-1.4-8.3-3.9c-2.4-2.4-4.6-3.1-5.5-6.6c-0.8-3.3,0-3.3-2.2-5.5c-1.7-1.7-5,0.5-7.2-0.6c-2.7-1.4-3.7-2.8-7.7-2.8
		c-2.8,0-5.5,0-8.3,0c-2.4,0-5.3-3.4-6.1-5c-0.2-0.4-2.9,3.3-5,3.9c-2.9,0.7-6,0.8-7.7,1.7c-2.4,1.2-4.2,4.1-6.1,5.5
		c-2.1,1.6-4.2,1.7-7.2,1.7c-3.6,0-4.9-0.5-6.6-2.2c-1.9-1.9-2.8-4.2-2.8-7.2c0-3.2,0.1-5.4-1.1-7.7c-1.4-2.9-1.1-6.2-1.1-9.4
		c0-1.6,4.2-5.2,5-6.6c1-2,0.4-5.6,0-7.2c-0.8-3.1-4.4-4.9-5.5-7.2c-0.8-1.6-3.5-3.5-4.4-4.4c-0.5-0.5,3.3-5.8,3.3-7.7
		c0-3.4,3.3-6.6,5.5-8.3c3-2.3,5.5-3.8,7.7-6.1c2.3-2.3,3.9-5,6.1-7.2c2.2-2.2-0.3-6.6-1.1-8.3c-1.6-3.1-2.9-4.7-4.4-7.7
		c-1.3-2.6-1.7-3.6-1.7-7.2c0-2.6,1.2-5.7,2.8-7.7c1.8-2.4,2.7-5.4,4.4-7.7c2.4-3.1,2.1-5.5,2.8-8.8c0.5-2.7,0.6-5.6,0.6-8.3
		c0-4.4-0.9-5.1-2.8-8.8c-1-1.9-3.7-4.2-5-5.5c-2.3-2.3-3.9-3.6-6.6-5c-2.9-1.4-6.4-2.7-8.8-3.9c-2.2-1.1-3.9-1.2-5.5-2.8
		c-1.8-1.8-1.1-5.2-1.1-7.7c0-2.7,0.1-5.8,0.6-7.7c0.6-2.6,0-6.2,0-8.8c0-2.8,0-5.5,0-8.3c0-3.1,0-6.3,0-9.4c0-2.8,0-5.5,0-8.3
		c0-3.4-1.4-6.3-2.2-9.4c-0.8-3.2-1.6-6-2.2-8.3c-0.8-3.2-0.6-6.9-0.6-10.5c0-3.2,0.7-6.2,2.8-8.3c2.1-2.1,3.4-5.7,4.4-7.7
		c0.9-1.7,0-6.3,0-8.3c0-0.7,0-1.5,0-2.2c0-2.2,6.1-7.2,7.2-8.3c2-2,4.3-3.8,6.1-5.5c2.3-2.3,3.9-5.6,4.4-7.7
		c0.7-2.8,1.2-5.7,2.2-7.7c1.3-2.7,3.8-4.8,4.4-7.2c0.7-2.9,1.1-5,1.1-8.3c0-2.7-0.1-5.8-0.6-7.7c-0.1-0.3-0.4-0.4-0.6-0.6
		C190.8,167.7,191.1,166.5,190.9,165.6z"/>
	<path id="path4434" class="st1" d="M213.5,250.6c-2-2,5.6-0.1,8.3,0.6c3.3,0.8,5.1,2.2,8.8,2.2c4.3,0,3.9,4.2,3.9,7.2
		c0,3.2,0,6.1,1.1,8.3c1.5,3,3.8,2,5.5,1.1c2.1-1,4.4-3.3,5.5-4.4c1.5-1.5,2.2,5.5,2.2,6.6c0,1.8-3.8,5.4-4.4,6.6
		c-1.8,3.6-4.7,3.3-5.5,6.6c-0.5,2-0.6,4.9-0.6,7.7c0,3.8,0.5,6,1.7,8.3c1.2,2.5,3.5,5.1,5,6.6c2.2,2.2,2.5,4.3,5,5.5
		c2.8,1.4,4.8,3,6.6,3.9c3.1,1.5,3.1,4.3,3.9,7.2c0.8,3.2-1.4,4.4-2.2,6.1c-1.2,2.4-3.9,3.9-5.5,5.5c-1.2,1.2-2.5,3.8-3.3,5.5
		c-1.2,2.4,0.7,6.3,1.1,7.2c1.1,2.3,4.1-3.2,6.6-3.9c3.1-0.8,3.5-2.7,6.6-3.3c2.7-0.5,6.1,0,8.8,0c3.6,0,5.3,0.4,7.7,2.2
		c2.7,2-0.7,4.9,3.9,6.1c2.4,0.6,5,0.6,7.7,0.6c3,0,1.7,4.4,1.1,5.5c-0.7,1.4-4.7,2.4-6.1,2.8c-1.9,0.5-2.8,3.7-2.8,6.1
		c0,2.4,2.2,3.6,2.2,6.6c0,2.4,2.2,4.8,2.8,7.2c0.2,0.7-4.3,4.7-5,5.5c-0.8,1-6.7,1.4-7.7,1.7c-1.9,0.5-1.1,5.3-1.1,7.2
		c0,1.6-4.3,5.9-5,7.2c-1.4,2.8-2.9,4.1-3.9,6.1c-1.3,2.6,3.1,4,4.4,5c2.5,1.9,4.2,1.7,7.7,1.7c0.8,0,6.4-3.9,7.2-4.4
		c1.7-1,6.8,0.2,8.3,0.6c3.9,1-0.7,6.8-1.1,7.2c-1.9,1.9-3.7,3.2-6.1,4.4c-3,1.5-5.8,4.6-7.7,7.2c-1.2,1.6-5.8,3.7-7.2,4.4
		c-2.5,1.3-5.1,2.2-7.2,2.8c-2.6,0.6-6.1,0-8.8,0c-3.7,0-5.7-0.2-7.7-2.2c-1.8-1.8-5.5-3.6-7.7-5c-2.2-1.3-4.6-1.7-6.6-2.2
		c-3.2-0.8-4.7-3.5-7.7-5c-2.4-1.2-4.4-2.8-6.6-5c-2.7-2.7-2.2-5.3-2.2-8.8c0-4.4,1.2-4.2,4.4-6.6c1.8-1.4,7.6-0.6,9.9-0.6
		c4.5,0,6.1,1.1,8.8,3.9c2.8,2.8,4.2,2.9,8.3,3.9c2.9,0.7,5.8,1.1,8.8,1.1c2.6,0,1.7-5.6,1.7-7.7c0-2.8,0.2-4.9,3.3-5.5
		c2.1-0.4,4.2-3.8,5.5-5.5c1.9-2.5,0.4-6.7-1.7-8.3c-2.1-1.6-3.5-4-5-5.5c-1.9-1.9-2.4-3.2-5-3.9c-3.1-0.8-6.5-3.2-8.3-5
		c-2-2-1.7-3.7-1.7-7.2c0-3.2-0.6-5.6-0.6-8.8c0-2.9,0-5.9,0-8.8c0-3.6-0.8-5.8-2.8-7.7c-2.2-2.2-4.3-4.8-5.5-7.2
		c-1-2-3.4-4.1-4.4-6.1c-1.3-2.7-2.5-3.4-3.9-6.1c-1.2-2.3-4.4-5-6.1-6.6c-2.5-2.5-3.6-5.3-5.5-7.2c-2.1-2.1-4.4-4.9-6.1-7.2
		c-1.7-2.3-2.1-4.7-3.3-7.2c-1.5-3.1-2.2-6-3.9-9.4c-1.5-3-3.2-4.9-5-6.6c-2.5-2.5-3.9-4.5-3.9-8.3c0-3.5,2.6-5.4,5.5-6.1
		c2.5-0.6,3.8-1.8,4.4-4.4C206.8,248.3,210.5,249.4,213.5,250.6z"/>
	<path id="path4432" class="st3" d="M422.1,639c0.1-0.6,5.8,0.6,7.7,0.6c3.2,0,6.6-3.5,7.7-5c1.5-2,3.9-2.2,6.6-2.2
		c3.7,0,5.1,1.7,8.3,3.3c2.7,1.4,3.8,1.9,7.2,2.8c2.6,0.7,5.8-0.1,8.3,0.6c2.4,0.6,4.4,1.6,6.6,2.2c2.8,0.7,3.8-2.2,5-3.3
		c2.8-2.8,1.6-3.9,6.6-3.9c3.1,0,6.3,0,9.4,0c3.8,0,7-0.9,9.9-1.7c3.5-0.9,6.7-1.1,10.5-1.1c4.1,0,6.2,0.9,9.4,1.7
		c2.5,0.6,4.1,2.6,6.6,3.9c2.8,1.4,5.4,1.1,8.8,1.1c3.3,0,4.2,1,6.6,2.2c3.4,1.7,6.4,3.2,8.8,5c0.7,0.6,1.5,1.1,2.2,1.7
		c3,2.3,4.1,3.2,7.2,5.5c2.7,2,4.7,2.7,7.7,5c0.3,0.2,0.7,0.4,1.1,0.6c3.7,1.8,4.1,4.1,7.7,5c3.6,0.9,7,1.3,10.5,2.2
		c3.6,0.9,4.9,4.3,7.7,7.2c0.6,0.6,1.1,1.1,1.7,1.7c2.3,2.3,3.9,2.5,3.9,6.6c0,4.3,0.6,4.7,3.9,5.5c2.4,0.6,5.7,0.6,8.8,0.6
		c3.7,0,7.7-0.3,11,0.6c0.7,0.2,1.5,0.4,2.2,0.6c3.7,0.9,7.2,2.2,11,2.2c3.9,0,6.3-2,9.4-2.8c3-0.7,6.6-0.6,9.9-0.6
		c2.8,0,5.4-2.8,6.6-4.4c1.6-2.2,4.6-3.8,7.2-4.4c3.3-0.8,7.3-1.2,10.5-0.6c3.5,0.7,8,0,11.6,0c4.5,0,6.2-2.3,9.4-3.9
		c3.3-1.7,4.8-3.3,8.8-3.3c2.6,0,6.2-3.3,9.9-3.3c4.1,0,6.9,1.5,7.7,5c0.8,3.2,7.8-1.8,8.3-2.2c2.2-1.7,5.4-1.1,8.3-1.1
		c1.9,0,3.4-5.7,3.9-7.7c1.1-4.3,6.1-3.9,9.9-3.9c4.9,0,6.6-1.3,6.6,3.9c0,5.3,1.7,5.2,6.1,6.1c5.1,1,6-1.3,9.9-3.3
		c2.8-1.4,4.3-0.6,7.7-0.6c3.9,0,6.5,0.7,8.3-2.8c1.3-2.6,1.1-5.4,1.1-8.8c0-2.8,0.1-6.3,0.6-8.3c0.9-3.5,1.5-4.1,2.8-6.6
		c1.7-3.4,6.4-2.3,8.8-1.1c2.1,1.1,2.3,6.3,3.3,8.3c1.2,2.3,6.8,2.8,9.4,2.8c4.4,0,7.1,4.3,7.7,6.6c0.9,3.5,0.8,5.5,2.2,8.3
		c1.4,2.9-1.4,6.1-2.2,7.7c-0.6,1.2-5.7,1.8-7.2,2.2c-2.7,0.7-5.6,1-8.3,1.7c-3.2,0.8-3.9,0.8-3.9,4.4c0,3.5-3.6,5.4-6.1,6.6
		c-2.4,1.2-5.7,3.2-8.3,3.9c-3.7,0.9-6.4,1.7-11,1.7c-3.5,0-7,0-10.5,0c-3.7,0-5,1.1-7.2,2.2c-2.2,1.1-2.7,4.5-3.9,6.1
		c-1.9,2.5-3.5,3.7-5,6.6c-0.8,1.7-6.1,2.7-7.7,3.3c-2.7,1.1-6.9,0.6-9.9,0.6c-2.9,0-6.9,1.1-10.5,1.1c-2.6,0-6.4,0.5-8.8,1.1
		c-3.5,0.9-5.7,0.2-8.8-0.6c-3.1-0.8-5.9-1.6-8.8-2.2c-3.7-0.7-5,1.1-6.1,3.3c-0.9,1.9-3.8,3.2-5.5,5c-1.6,1.6-4.7,2.2-7.2,2.2
		c-3.2,0-6.5-0.2-9.4,0.6c-3.8,1-1.1,2.4-1.1,6.1c0,4.2-1.1,3.9-5,3.9c-1.4,0-5.1-4.3-6.1-5c-1.8-1.3-4-1.8-5.5-3.3
		c-2-2-6.2-1.1-8.8-1.1c-3,0-3.8,2.2-7.2,2.2c-4,0-5.8,0.2-8.3-2.2c-1.5-1.5-7.2-0.6-9.4-0.6c-3.8,0-6.6,0-9.4-1.7
		c-2.5-1.5-4.2-4.2-6.6-6.6c-2.3-2.3-3.1-6-4.4-8.3c-1.5-2.5-3-4.4-4.4-7.2c-0.9-1.8-6.5,0-7.7,0c-3,0-4.5-2.4-5.5-4.4
		c-1.2-2.4-5.9-4.9-8.3-6.1c-1.4-0.7-4.3-4.9-5.5-6.1c-2.1-2.1-4.5-4.5-6.6-6.1c-2.8-2.1-5.6-4.5-7.7-6.6c-2.4-2.4-4.5-3.4-6.6-5.5
		c-1.9-1.9-3.5-4-6.1-5.5c-3.1-1.9-4.5-4.2-7.2-5.5c-2.9-1.4-4.9-2.5-8.3-3.3c-3.6-0.9-6.6-1.1-10.5-1.1c-3.5,0-5.5,1.1-8.8,1.1
		c-2.6,0-6.5,0.5-8.8,1.1c-3.7,0.9-5.8,2.9-8.8,4.4c-3.4,1.7-6.1,0-8.8,2.8c-1,1-5,2-6.6,2.8c-3.1,1.5-4,0.7-6.1,2.8
		c-1.8,1.8-1,5.8,0,7.7c1.6,3.2-0.4,5.3-1.7,6.6c-2.6,2.6-3.3,3.4-6.1,5.5c-2.1,1.5-6.8,0.4-8.8,0c-4.1-0.8-6.9-2.3-9.9-3.9
		c-3.4-1.7-3.2-4.7-2.2-6.6c1.3-2.6,6.3-2.9,8.3-4.4c2.3-1.7,4.4-2.7,6.6-4.4c2.8-2.1,3.6-2.1,7.7-2.8c0.1,0-4.5-3.5-6.1-3.9
		c-3.2-0.8-5.2-1.7-8.8-1.7c-3.6,0-5.5,0.1-8.3,2.2c-2.8,2.1-3.6,3.6-6.1,6.1c-1.9,1.9-4.4,3.3-6.1,5c-2.6,2.6-5.2-0.2-7.2-1.7
		c-2.3-1.7-3-3-5-5c-2.1-2.1-3.7-3-5-5.5c-1.6-3.2-3.8-2.2-2.8-7.2C418.1,641,417,640.1,422.1,639z"/>
	<path id="path4430" class="st3" d="M325,663.9c0.6,1.6,2.1,4.9,4.4,6.1c2.9,1.4,3.3,4.6,7.2,5.5c1.3,0.3,1.9,4.8,2.2,6.1
		c0.6,2.4,1.8,4.4,4.4,4.4c3.5,0,7,0,10.5,0c2.9,0,5.3,1.1,8.8,1.1c2.8,0,5.5,0,8.3,0c2,0,5.7-3.5,6.6-4.4c2.5-2.5-3.4-5.6-4.4-6.1
		c-3.8-1.9-5.8-0.9-8.3,1.7c-2.3,2.3-5.3,0.7-6.6-0.6c-1.7-1.7-1.4-6.1-2.2-7.7c-0.7-1.4-7.6-1.1-9.4-1.1c-3.7,0-4.2-1.5-6.6-2.8
		c-3-1.5,0-5.5,2.2-5.5c3.6,0,5.8,0.3,7.7-1.7c2.1-2.1-1-4.3-2.2-5.5c-1.8-1.8-4.2-3.7-6.1-5.5c-1.8-1.8-3.3-3.3-6.1-3.3
		c-1.8,0-4.3,3.6-5,5c-1.4,2.8-2.6,5-3.3,7.7C326.2,661.2,328.3,659.7,325,663.9z"/>
	<path id="path4428" class="st3" d="M413.3,671c-0.1,0.4,6.5-0.6,8.3-0.6c2.8,0,2.8,3.3,2.8,6.1c0,3.7-0.9,4.3-3.3,6.1
		c-2.3,1.7-5.3-3-6.1-3.9c-1.3-1.3-5.8,1.4-6.6,1.7c-2.2,0.6-2.8-4.3-2.8-6.1c0-3.2,1.2-3.9,3.3-5C411,668.3,410.4,668.8,413.3,671z
		"/>
	<path id="path4426" class="st1" d="M614.1,634.1c0.2-0.2,8.8,3.3,11,3.9c4.3,1.1,7.7,1.7,12.1,1.7c3.3,0,6.4,2.7,7.7,4.4
		c1.9,2.5,4.3,2.5,5.5,5c1.6,3.3-0.2,4.6,3.3,5.5c2.7,0.7,3.5,1.7,6.6,1.7c2.9,0,5.9-1.5,8.3-3.3c2.7-2.1,4.2-2.2,7.7-2.2
		c2.1,0,2.5,3.6,3.9,5c1.6,1.6,6.5,2.3,8.3,3.3c2.7,1.6,4.2,2,5,5c0.8,3.1,1.6,4.5,0,7.7c-1.3,2.5-2.9,3.3-6.1,3.3
		c-4.8,0-4.7-0.8-7.2-3.3c-2.3-2.3-6.6-1.7-9.4-0.6c-3.6,1.5-3.8,3.3-9.4,3.3c-3,0-4.6-3-6.6-5c-1.2-1.2-5.8,1.3-7.2,1.7
		c-3.4,0.9-5.5-1.1-8.8,0.6c-2.9,1.4-3.3,2.8-3.3,6.6c0,3.6-2.5,4.7-4.4,6.6c-1.4,1.4-4.7-4.9-5-5.5c-1.2-2.4-2.8-3.4-3.9-5.5
		c-0.8-1.6-4.3-3.7-5.5-5c-2.2-2.2-3.8-3.3-6.1-4.4c-1.9-1-1.1-5-1.1-7.2c0-4.3-4-6.3-5.5-9.4c-1.2-2.4-0.3-5.5,0.6-7.2
		c1-2.1,3.1-4.2,4.4-5.5C611,633.3,611.3,632.9,614.1,634.1z"/>
	<path id="path4424" class="st1" d="M625.7,582.2c1.9-1.9-5.4,2-6.6,4.4c-1.2,2.4-0.6,5.7-1.7,7.7c-1.4,2.8-3.9,2-5,6.1
		c-0.7,3,1.6,5.3,2.2,7.7c0.7,2.8,1.6,3.8,3.9,5c2.3,1.2,4.4,1.7,7.7,1.7c3.1,0,6.3,0,9.4,0c2.7,0,6.4,6.2,9.4,7.7
		c3.1,1.5,5.4,4.2,6.6,6.6c1.7,3.4-1.8,4.9,2.8,6.1c3.4,0.8,5.6,0.9,8.3,2.2c4.1,2,6.3,5.2,10.5,6.1c3,0.6,4.1,1.7,7.7,1.7
		c2.2,0,4.8,2.2,8.3,2.2c1.4,0,6.5-3.8,8.8-5c2.8-1.4,4.5-4.7,7.2-6.1c2.8-1.4,7.6-0.5,10.5-1.1c4.2-0.8,8.2-1.8,12.1-2.8
		c2.9-0.7,5.5-1.9,8.8-2.8c3.4-0.8,5-1.9,8.3-2.8c1.9-0.5,5.2-3.5,6.1-4.4c2.2-2.2,2.4-4.2,1.7-7.2c-0.4-1.7-3.5-4.1-5-5.5
		c-2.1-2.1-3.8-3.2-5.5-5c-2-2-4.9-3.8-6.6-5.5c-2.5-2.5-3.8-3.8-6.6-6.6c-2.1-2.1-4.2-3.7-6.6-6.1c-1.7-1.7-3.4-3.2-5-4.4
		c-2.3-1.7-5.4-1.1-8.3-1.1c-3.5,0-7.3-0.3-10.5,0.6c-3.4,0.8-6,2.5-9.4,3.3c-4,1-8.5,0.6-12.7,0.6c-4.2,0-8.5,0-12.7,0
		c-4.4,0-8.8,0-13.2,0c-3.9,0-7.7,0-11.6,0c-2.7,0-4.9-2.7-6.1-3.9C632.1,580.9,626,582.1,625.7,582.2z"/>
	<path id="path4422" class="st1" d="M183.2,605.4c1.8-2.9,2.6-5,7.2-5c3.4,0,8,1.8,11,3.3c3.8,1.9,5.8-0.3,9.4,3.3
		c2.7,2.7,5.1,5.7,7.2,7.7c2.2,2.2,4.6,2.8,7.7,2.8c3.1,0,7,0.8,8.8,1.7c2.8,1.4-2,5.9-2.8,6.1c-3.2,0.8-5.4-1.1-8.8-1.1
		c-3.5,0-7.5,2.1-9.9,3.3c-3.3,1.7-6.1,2.9-8.8,5c-2.2,1.7-7.2-0.8-8.3-1.7c-2-1.5-0.9-5.9-0.6-7.2c0.3-1.2,7.2-0.6,8.3-0.6
		c4.8,0,1.1-4.5-0.6-5c-3-0.8-6.4-1.7-10.5-1.7c-3.4,0-6.1-0.3-8.8-1.7C180.8,613.3,182.1,608,183.2,605.4z"/>
	<path id="path4420" class="st3" d="M214.1,594.3c-3.9-1.9-0.6,6.4,1.1,7.7c2.7,2,7.5,1.1,10.5,0.6c2.8-0.6,4.8-1.6,7.2-2.2
		c3.6-0.9,4.2-2.8,8.3-2.8c2.3,0,1.8-3.8-1.1-4.4c-3.3-0.7-6.8,0.2-9.9-0.6c-2.5-0.6-4.2-2.6-7.2-3.3
		C220,588.6,216.9,593.7,214.1,594.3z"/>
	<path id="path4418" class="st3" d="M248.9,623.6c-3-0.7,5.6-2.8,7.7-5c2.3-2.3,3.1-4.1,5-6.6c2.1-2.8,2.2-4.1,5.5-3.3
		c2.4,0.6,2.7,7.6,3.3,8.8c1.6,3.2,5.5-1.9,5.5-3.9c0-3.4,6.6,2.7,6.6,2.8c1.8,2.3,1.1,6.1,1.7,8.8c0.5,2.7,0,6.1,0,8.8
		c0,2.6,1.7,5.2,2.2,7.2c0.5,2.2,4.5-1.2,6.1-2.8c1.6-1.6,3.2-3.3,4.4-5c1.9-2.5,1.5-3.9,5.5-3.9c2.9,0,5.9,0,8.8,0
		c1.6,0,5.3,4.8,6.1,5.5c0.8,0.8-4.7,5.8-5,6.1c-1.5,1.5-3.9,5-5,7.2c-1.6,3.1-3.7,4.1-5,6.6c-1.3,2.6-2.5,4.1-3.3,7.2
		c-0.8,3.2-3,3.2-5.5,3.9c-2.4,0.6-6.1,0-8.3-0.6c-1.9-0.5-4.1,2.4-5,3.3c-1.5,1.5-5.5,1.1-7.7,1.1c-2.8,0-5.2-3.6-7.2-5.5
		c-1.1-1.1-1.1-6-1.7-7.2c-0.9-1.8-5.3-2.3-7.2-2.8c-2.5-0.6-3.2-3-4.4-5.5c-0.9-1.7,0-6.3,0-8.3c0-1.9-5-4.2-6.6-5
		c-2.7-1.4-5.9-2.2-8.3-2.8c-2.3-0.6,0.6-5,2.2-6.6c1.9-1.9,2.3-3.3,6.1-3.3C246.7,623,247.7,623.4,248.9,623.6z"/>
	<path id="path4416" class="st3" d="M153.9,564c0.2,0,5.4,4.1,7.2,5c2.3,1.2,5.6,0.8,7.2,1.7c0.6,0.3,0,8.4,0,9.4
		c0,3.3,1.1,5.3,1.7,7.7c0.8,3.1,3.6,5,5,7.7c1.2,2.5,1.1,4.9,1.1,8.3c0,4.1-1.9,3.7-5.5,2.8c-2.4-0.6-3.9-3.3-5-4.4
		c-1.7-1.7-5.3-1.1-7.7-1.1c-2.8,0-4.2-1.8-5.5-4.4c-0.8-1.6,1.7-5.6,2.2-6.6c1.5-2.9-0.7-5.2-1.7-7.2c-1.7-3.3-1.6-4.9-4.4-7.7
		c-2.3-2.3-2.8-2.2-2.8-6.1c0-3,1.4-5,4.4-5C151,564,153.5,564,153.9,564z"/>
	<path id="path4414" class="st1" d="M178.2,525.9c1.2,0,5.9,0,8.8,0c3.5,0,7,0,10.5,0c2.9,0,4.6-3.1,5.5-5c1.3-2.6,3.4-4,4.4-6.1
		c1.9-3.8,3.3,2.4,3.3,3.9c0,4.1,1.1,6.1,2.8,9.4c1.2,2.4,1.8,5.3,2.8,7.2c1.7,3.4-0.6,3.8,2.8,5.5c2.4,1.2,2.8,4.4,2.8,7.2
		c0,3.1,0,6.3,0,9.4c0,3.1,0,6.3,0,9.4c0,2.8-0.1,6.3-0.6,8.3c-0.7,3-1.2,4.6-2.2,6.6c-1,2-3.8,4.3-5.5,6.6c-1.3,1.8-4.3,3-6.1,3.9
		c-2.2,1.1-5.7,0.6-8.3,0.6c-4.3,0-5.6,1.7-9.4,1.7c-3.3,0-6,0-8.3-1.1c-2.2-1.1-0.9-7.1-0.6-8.3c0.8-3.4-1-4.9-2.8-6.6
		c-3.1-3.1,3.1-3.9,5-3.9c3.9,0,4.4-1.6,4.4-5c0-1.7-5.7-1.1-7.2-1.1c-3.4,0-5-0.4-5-3.9c0-1.7,4.5-4.5,6.1-6.1
		c1.9-1.9,4.6-1.7,7.7-1.7c3.5,0,5.5-0.1,5.5-3.9c0-4.1-4.6-1.8-6.6-1.1c-3.2,1.1-4.2,1.5-7.2,2.2c-3.3,0.8-5.5,0.4-5.5-2.8
		c0-2.8,3.4-5.1,4.4-6.1c2.9-2.9,4.2-2.4,3.3-6.1c-0.5-1.9-8.4,1.9-8.8,2.2c-1.9,1.4-5.7,1.1-8.3,1.1c-3.4,0-4.3-1.2-5-3.9
		c-0.9-3.8,1.6-4.7,4.4-6.1c2.7-1.3,4.6-1.8,6.6-3.9C174.1,526.7,174.7,527.3,178.2,525.9z"/>
	<path id="path4412" class="st3" d="M230.1,505c2.1-2.1,0.4,6.5,2.8,8.3c2.1,1.6,2.2,3.6,2.2,6.6c0,2.8,0,5.5,0,8.3
		c0,3.5,0.1,6.4-1.1,9.4c-1.7,4.3-5.7-0.8-6.1-1.7c-0.9-1.7-0.7-6.3-1.1-7.7c-0.9-3.4-3.9-3.5-3.9-7.7c0-3-0.1-6.1,0.6-8.8
		c0.6-2.6,1.9-4.9,2.8-6.6C226.9,503.7,229.5,504.8,230.1,505z"/>
	<path id="path4410" class="st1" d="M245.5,559.6c0-1.9,2.6-5.1,3.9-7.7c1.4-2.8,1.7-5,2.8-7.2c1-2.1,3.1-3,4.4-5.5
		c1.5-3,1.1-5.4,0-7.7c-1.3-2.6,0.9-5.7,1.7-7.2c1-2.1,2.8,5.4,2.8,6.6c0,3.9,2.5,6.2,5.5,7.7c3.1,1.5,4.6-0.5,5.5,3.3
		c0.7,2.7,0.5,5.8,1.1,8.3c0.7,2.8,3.1,4.6,4.4,7.2c1.5,2.9,2.9,3.5,5,5.5c2.9,2.9,5.1-1.2,5.5-2.8c0.6-2.5,0-6.2,0-8.8
		c0-4.4-0.7-6.3-3.3-8.3c-2.5-1.9-5.2-4.5-7.2-7.2c-2.2-3-4.7-5.8-7.2-8.3c-1.9-1.9-2.8-4.2-2.8-7.7c0-3.3,3.2-5.4,4.4-7.7
		c1.2-2.3,3.1-4.6,5-7.2c2.2-2.9,2.1-5.7,5-7.2c1.7-0.9,5.7-5.7,7.2-7.2c1.9-1.9,3.9-7.4,3.9-1.7c0,2.9-0.1,5.7,0.6,8.3
		c0.9,3.6,7.5-0.1,8.3-1.1c2.1-2.8,4.3-1.4,6.1-0.6c2.9,1.5-2.5,6-2.8,6.1c-2.3,1.1-4.3,1.5-6.1,3.9c-1.7,2.2,0.4,5.7,1.1,7.2
		c1.6,3.2,3.9,4.4,3.9,7.7c0,3.2-0.6,5.6-0.6,8.8c0,1.6-1.1,5.6-1.1,8.3c0,2.8,3.7,6.6,5,8.3c1.5,2,3.2,3.2,5,5
		c2.1,2.1,3,2.8,3.9,6.1c0.7,2.8,3.5,3,5,4.4c2.6,2.6,4.4,1.9,4.4,6.6c0,3.5-2.6,2.6-5.5,3.3c-2.4,0.6-5.8,0-8.3,0
		c-4.1,0-2.8,3.8-2.8,7.2c0,3.4-2.4,4.7-3.9,6.1c-2.7,2.7-5.1-1.8-6.1-2.8c-2.2-2.2-3.8-4.8-6.6-5.5c-2.5-0.6-3.3,3.1-3.3,5.5
		c0,3.4-0.3,5.3-1.7,7.2c-1.5,1.9-3,2.3-5.5,1.7c-1.8-0.4-4.6-4.9-6.1-6.1c-2.3-1.7-5.1-1.3-7.7-3.3c-3.1-2.3-1.6,3.2-1.1,5.5
		c0.3,1.7,1.2,5.4,1.7,7.7c0.2,1-5.4,3.8-6.6,5c-2.4,2.4-3.6,5.3-6.1,7.2c-2.9,2.2-2.6,2.9-5.5,0c-2.2-2.2-3.1-3.2-3.9-6.1
		c-0.7-2.9,0-5.5-1.1-7.7c-1.3-2.6-3.1-3.7-3.9-6.6c-1-4.1,0.8-6.2-3.3-8.3c-2-1-1.7-5.4-1.7-7.7c0-3.4,1.1-4.8,1.7-7.2
		C238.7,561.4,244.1,560.1,245.5,559.6z"/>
	<path id="path4408" class="st3" d="M376.9,523.7c-1.2-2.4,4.4,4,4.4,6.6c0,2.2-4.4,1.9-6.1,2.8c-0.5,0.2-4,4.3-5,5
		c-2.9,2.2-5,0.4-5-2.8c0-3.5,2.1-5.5,2.8-8.8c0.8-4,1.7-5.5,5.5-5.5C376.5,521,376.9,520.1,376.9,523.7z"/>
	<path id="path4406" class="st3" d="M356.4,517.1c2.6,0,2.2,1.8,2.2,4.4c0,3.1,6.6,0.1,7.2-0.6c2.3-2.3,3.2-3.4,3.9-6.1
		c1.1-4.4,1.4-4.5-2.2-7.2C365.8,506.4,357.4,515.9,356.4,517.1z"/>
	<path id="path4321" class="st3" d="M342.7,509.9c-0.3,2.1,0.9,5.4,3.3,7.7c0.8,0.8,7,0,8.3,0c4.1,0,2.6-2.5,1.7-4.4
		c-1.3-2.5-3.8-3.2-5.5-5C347.7,505.6,345.3,508.3,342.7,509.9z"/>
	<path id="path6386" class="st1" d="M200.3,485c1.6,1.5-4.9,1.8-5.4,4c-0.9,3.9,2.9,2.7,5.6,2.6C204.6,491.5,202.2,487.2,200.3,485z
		"/>
	<path id="path4331" class="st2" d="M256,467.4c-0.7-2.7,0.1,5.6-0.6,8.3c-0.9,3.7-5.3-0.9-6.1-1.7
		C248.3,472.9,254.8,467.7,256,467.4z M215.7,471.8c-2.2-2.2,6.2,1.7,9.4,1.7c3.9,0,3.3-2.5,3.3-6.1c0-1.9-5.3-1.1-7.2-1.1
		C218.7,466.3,217,469.8,215.7,471.8z M185.4,453.1c-1.6,0,1.3,6.9,1.7,7.7c1.1,2.1,1.4,4.4,2.2,6.1c0.7,1.4,1.4,4.5,2.2,6.1
		c1.5,3.1,3.6,2.4,5.5,0.6c1.5-1.5-1-6.6-1.1-7.2c-0.7-2.7-0.1-5,0.6-7.7c0.8-3.2,0.6-5.4-0.6-7.7c-1-1.9-6-1.7-8.3-1.1
		C185.7,450.2,185.9,450.8,185.4,453.1z M183.7,471.8c-2.5,0.6,2.1,4.8,3.9,6.6c3.5,3.5-4.8,2.2-5,2.2
		C178.3,479.6,182.2,473.4,183.7,471.8z M226.8,450.9c-2.1-0.5,3.4,3.3,5.5,3.3c2.2,0,2.2-6.3,2.2-6.6c0-1.3-3.3-3.8-4.4-5
		C227.8,440.3,226.7,450.5,226.8,450.9z M260.4,560.7c0.8-3.1,0.3,6.3,1.1,9.4c0.3,1.3,6-2.2,6.1-2.2c3.3-0.8,1.9-4.9,1.1-6.6
		C267.3,558.5,263.1,558.7,260.4,560.7z"/>
	<path id="path11377" class="st2" d="M844.5,593.3c-0.3,4.9-1.3,7,5.5,7c4.2,0,8.3,0,12.5,0c5.1,0-1.1-5.5-5.5-5.5
		C852.2,594.9,848.9,595.1,844.5,593.3z"/>
	<path id="path11375" class="st3" d="M865.5,612c-1.7,0-0.5,9.9,0,11.7c0.9,3.6,9-2.3,9.4-3.9c1.1-4.5,0.5-7.6-0.8-10.1
		C872.8,607,868.1,610.5,865.5,612z"/>
	<path id="path8336" class="st3" d="M862.4,651c-0.5-1.1,1.7-9.1,2.3-11.7c1.2-5,5.2-4.3,6.2-8.6c0.5-2.1,5-4.3,7-6.2
		c2.5-2.5,3.6-6,7.8-7c4.2-1.1,8.7-1.6,13.3-1.6c3.4,0,6.2-4.3,8.6-5.5c3.3-1.7,4.9-4.2,7-6.2c2.6-2.6,3.3-4.9,5.5-7
		c2.8-2.8,4-3.9,8.6-3.9c5.1,0,7.8,0.6,11.7,1.6c3.5,0.9,8.3,0.9,10.9,1.6c1.6,0.4,5.6,6.7,7,7.8c2.1,1.6,2.3,6.7,2.3,10.1
		c0,4.6-1.6,6-1.6,10.9c0,3.7,5.2,3.8,8.6,5.5c4.7,2.4,6.1,4.3,10.9,5.5c4.1,1,1.2,7.6,0.8,8.6c-1,2.1-10.4-1.3-10.9-1.6
		c-4.1-2.1-3.3-4.7-9.4-4.7c-5,0-8.5-3.8-11.7-6.2c-3.7-2.8-5.5-3.9-8.6-7c-2.1-2.1-6-5-8.6-7c-3-2.3-9,1.2-10.1,2.3
		c-2.8,2.8-5.5,3.9-8.6,5.5c-2.9,1.4-4.9,5.2-6.2,7.8c-1.3,2.6-5.9,3.5-7.8,5.5c-3.3,3.3-3.9,3.1-9.4,3.1c-3.9,0-7.5,1.2-10.1,3.9
		c-2.8,2.8-4.5,3.1-5.5,7c-1.3,5.3-5.1,3.9-10.1,3.9C858.1,657.3,861.6,652.4,862.4,651z"/>
	<path id="path8396" class="st1" d="M984.1,592.2c-4.9,0-5.2,1.9-3.9,7c0.8,3.2,7-0.8,9.4-3.1C993.3,592.5,984.6,592.2,984.1,592.2z
		 M961.5,591.4c1.5-1.5-2.1,6.2,0,6.2c5.8,0,6.2,0.4,6.2-5.5C967.7,588.9,962.7,591,961.5,591.4z M972.4,605.5
		c0-3.6-4.8,6.6-3.9,10.1c1.1,4.3,5.1,3.1,9.4,3.1c3.9,0,0-7.8,0-11.7C977.9,605.2,974.3,605.9,972.4,605.5z M983.4,612.5
		c0-3.7,3.2,7.6,1.6,10.9c-2.6,5.3-5.5-4.5-5.5-6.2C979.5,613.1,978.3,612.5,983.4,612.5z M991.2,617.2c0-3.9-0.2,7.9,0.8,11.7
		c1.3,5.1,2.7,3.9,8.6,3.9c4.9,0,5,2.3,10.1,2.3c6.1,0,5.1-2.3,3.1-6.2c-1.4-2.8-3.6-6.1-7-7.8
		C1002.1,618.8,997.3,617.2,991.2,617.2z"/>
	<path id="path8386" class="st4" d="M1024.3,663.8c-1.8-0.9-1.4,5.6,0.6,6.1c3.7,0.9,5,1.3,5-2.8
		C1029.8,664.3,1026.7,663.8,1024.3,663.8z"/>
	<path id="path8384" class="st4" d="M1019.3,677c0-2.8,0,5.5,0,8.3c0,3.6-0.6,5.2,2.8,6.1c2.8,0.7,4.2-2,5.5-3.3
		c2.1-2.1,1.7-4,1.7-7.2c0-3.4-0.3-4.4-3.9-4.4C1023.2,676.5,1021.6,676.6,1019.3,677z"/>
	<path id="path8382" class="st4" d="M975.2,678.7c-0.9,0,0.6,6.7,1.1,7.7c1.8,3.5,0.4,3.1-1.1,6.1c-1.8,3.5-2.1,2.5-5.5,1.7
		c-3.8-1-4.3,0-3.3-3.9c0.7-2.7,1.1-4.1,1.1-7.2c0-1.8,3.2-4.6,3.9-5.5C972.5,676,974,677.9,975.2,678.7z"/>
	<path id="path8380" class="st4" d="M987.9,689.7c2-2.7,2.1-5.6,5-2.8c1.6,1.6-2.5,5.6-2.8,6.1c-1.1,2.2-0.4,5.5,0,7.2
		c0.4,1.6,4,2.8,6.1,2.8c3.3,0,6.6,0,9.9,0c3.8,0,2.8,2.1,2.8,5.5c0,3.1,2,3.3,4.4,3.9c2.4,0.6,3,2.2,6.6,2.2c3.5,0-0.6,6.5-1.1,7.2
		c-1.9,2.6-4.5,0.4-6.1-1.1c-0.1-0.1-7-0.3-7.7-0.6c-2.2-0.9-3.9,2.7-5.5,4.4c-2.7,2.7-3.6,1.7-4.4,1.7c-1.8,0,3.3-5.3,3.9-5.5
		c2.7-1.4,2.8-3.4,2.8-6.6c0-2.1-4.1,1.3-5.5,2.8c-1.7,1.7-3.3,2.7-5,4.4c-2.8,2.8-4.4-1.6-5-3.9c-0.6-2.5-2.8-2.7-2.8-6.1
		c0-2.5-1.3-3.4,0-6.1c1.9-3.7,1.9-3.4-2.2-4.4c-2.8-0.7-5.5,2.6-6.6-1.7c-0.4-1.8,3.1-4.2,3.9-5c2.3-2.3,3-3.7,5.5-5.5
		C985.1,687.8,986.6,689.2,987.9,689.7z"/>
	<path id="path8378" class="st4" d="M1030.9,717.3c0.5-0.3,6.4,0,8.8,0c4,0,3.1,2.5,0,3.3c-2.8,0.7-2.6,2.2-6.6,2.2
		c-4.1,0-5,1.1-5-2.8C1028.2,718.7,1030,718.2,1030.9,717.3z"/>
	<path id="path8342" class="st4" d="M1001.1,732.7c0-2.6,0.9,5.4,2.8,7.2c2.1,2.1,3.1,1.2,3.9,4.4c1.1,4.6-3.2,3.9-6.6,3.9
		c-3.4,0-4.9,0.4-7.7,1.1c-3.5,0.9,4.7,4.3,5,4.4c2.8,0.7,6.5,0,9.4,0c1.6,0,3.3,4.1,4.4,5.5c2.1,2.8,4.4-3.2,4.4-4.4
		c0-4.6-0.4-5.5,4.4-5.5c3.3,0,2.2,4.5,2.2,7.2c0,4.1,0.4,4.4,3.9,6.1c1.2,0.6,1.5-5.9,1.7-6.6c0.9-3.4,1-5.2,4.4-6.1
		c2.6-0.7,5.1-1.5,7.7-2.2c3-0.7,4-1.7,7.7-1.7c2.6,0,3.3,2.7,5,4.4c2.4,2.4,6.7-2,7.7-3.3c1.7-2.2,4.4-1.8,7.2-1.1
		c3,0.7,4.4,1.6,6.6,3.3c1.6,1.2,1.9,5.8,2.2,7.2c0.6,2.4,3.5,2.2,6.1,2.2c2.3,0,4.8-3.5,6.6-4.4c2.3-1.2,4.3-1.7,7.2-1.7
		c2.4,0,4.1-1.9,5.5-3.3c1.4-1.4,1.1-5.2,1.1-7.7c0-3.3,0-6-1.1-8.3c-1.3-2.7-1.7-4.4-1.7-7.7c0-3.1,0.1-6.1-0.6-8.8
		c-0.6-2.4-0.6-4.8-0.6-7.7c0-3-0.8-4.5,0.6-7.2c1.5-2.9,2.7-2.9,5.5-2.2c1.7,0.4,2.2,4.2,2.2,6.1c0,2.8,0,5.5,0,8.3
		c0,3.2-0.6,4.9-0.6,7.7c0,2.8,0,5.5,0,8.3c0,3.7,1.4,3.3,5,3.3c3.6,0,6.5-0.4,9.9-1.1c1.8-0.4,4-2.9,5-3.9c2-2,3.5-3.1,6.1-4.4
		c1.6-0.8,3-3.6,4.4-5c0.3-0.3,0.4-0.7,0.6-1.1c1.1-2.1,5.4-2.2,7.7-2.2c2.5,0,7.4,7.5,8.8,9.4c1.5,2,2.1,4.8,3.9,7.2
		c1.7,2.3,2.1,5.3,3.3,7.7c1.7,3.3,3.6,5.5,6.6,7.7c1.9,1.4,6.3,3.5,8.3,5c2.5,1.9,7,1.1,9.9,1.1c2.5,0,5.5-0.6,8.3-0.6
		c2.1,0,5.4,1.7,8.3,1.7c2.8,0,5.5,0,8.3,0c4.1,0,5.3,0.8,8.8,1.7c3.3,0.8,4.6,1.7,8.3,1.7c2.6,0,3.9,3.5,4.4,5.5
		c0.7,2.9,4.4,2.2,7.2,2.2c3.1,0,6.3,0,9.4,0c3.1,0,6.1,0.1,8.8-0.6c3.2-0.8,5.7,2.4,7.7,4.4c1.9,1.9,6.4,2.8,9.4,2.8
		c3.1,0,6.3,0,9.4,0c2.8,0,5.5,0,8.3,0c2.6,0,5.9,0.1,7.7,0.6c3.3,0.8,6.2,0.4,8.8,1.7c2.9,1.4,3.4,2,7.2,2.8c4,0.8,7.1,3,9.4,6.1
		c2.6,3.4,4.2,5.8,6.6,8.3c2.1,2.1,2.9,3.7,4.4,6.6c1.4,2.7,3.3,3.8,5.5,5c2,1,6,0.6,8.8,0.6c3.6,0,5.3-1.7,8.8-1.7
		c3.7,0,6.7,0.6,10.5,0.6c3.3,0,6.6,0,9.9,0c4.2,0,3.8,1.6,6.6,4.4c1.7,1.7,6.3,2.4,1.1,5c-3.2,1.6-3.4,2.8-7.7,3.9
		c-3.2,0.8-4.5,1.4-7.7,2.2c-3.7,0.9-5.3-0.7-3.3,3.3c0.7,1.3,8,0.6,9.4,0.6c4.1,0,8.4-0.2,12.1,0.6c4.2,0.8,3.9,2.2,6.6,5
		c2.4,2.4,4.4,5.5,6.1,7.7c2.6,3.5,3.8,4.4,6.6,7.2c2.8,2.8,4.1,1.6,5,5l0.6-99.9c0.1-0.4-7.7-3.7-8.3-3.9c-2.4-0.6-7.3,1.4-9.4,2.2
		c-4.6,1.8-12.5,0.6-17.7,0.6c-5.4,0-7.2-1.9-12.1-3.9c-1.6-0.6-4.6-4.6-5.5-5.5c-2.6-2.6-4.7-2.2-8.3-2.2c-4.7,0-8.5-1.7-13.2-1.7
		c-2.7,0-5.7-1.1-8.8-1.1c-5.1,0-8.4-0.2-12.7-2.8c-3-1.8-5.9-4.1-8.8-5.5c-2.6-1.3-6.9-0.6-9.4,0c-2.9,0.7-3.8,2-6.6,2.8
		c-3.9,1-7.5-1-9.9-2.8c-3.1-2.3-3.8-3.8-6.1-6.1c-2.1-2.1-3-4.1-5.5-6.6c-1.8-1.8-6.8-1.1-9.4-1.1c-3.8,0-4.5,1.7-7.7,1.7
		c-3.8,0-5.9-2.2-9.4-2.2c-4,0-5.1,0.7-7.2,2.8c-2.6,2.6-6.9,1.7-10.5,1.7c-4.2,0-14-4.3-18.8-5.5c-3.7-0.9-5.1-2.9-7.7-5.5
		c-2.5-2.5-5.1-5.1-7.2-7.2c-2.1-2.1-2.8-7.5-2.8-10.5c0-3.3,0-6.6,0-9.9c0-4.3-0.2-5-3.9-7.2c-3.4-2.1-6.9-2.8-11.6-2.8
		c-5,0-8,1.8-12.1,3.9c-2.5,1.2-4.9,2.2-7.2,3.3c-2.6,1.3-8.5-2.7-11-3.3c-4.1-1-7.8-4.5-11-6.1c-1.6-0.8-3.2-0.6-5-0.6
		c-1.5-0.7-7.9,0.5-9.9,0c-2.6-0.6-4.8-4.3-6.6-6.1c-1.8-1.8-4.1-3.6-5.5-5c-2.8-2.8-3.8,1-5,3.3c-1.6,3.3-3.8,2.8-7.2,2.8
		c-4,0-5.1,0.3-7.7,1.7c-2.9,1.5-5.2,5.2-7.2,7.2c-2.1,2.1-3.3,3.9-5.5,6.1c-2.2,2.2-3.3,4.1-3.3,7.2c0,2.7-1.1,6.1-2.2,8.3
		c-1.6,3.1-3.3,4.6-3.3,8.8c0,1-7.3,1.1-8.3,1.1c-4.3,0-2.1,2.4-1.1,4.4c2,4-1.8,5.2-3.9,6.1c-3.6,1.4-5.5-0.1-6.6,4.4
		c-0.7,2.7,5.3,5.2,7.2,6.6c3.1,2.3,4.4,1.8,4.4,6.1c0,2.7,1.2,4.5,0.6,7.2c-0.8,3.2,4.8,2.3,7.2,2.8c3.2,0.6,4.3-1.9,6.1-2.8
		c2.7-1.4-0.1-5.8,5.5-4.4c2.8,0.7,0.2,7.4,0,8.3c-0.6,2.6-6.1,0.2-6.6,0c-3.3-1.6-3.2,1.2-3.9,3.9c-0.5,2.1-5.2,1.7-7.2,1.7
		c-3.8,0-3.9-0.6-3.9-4.4c0-4.5-0.6-2.3-3.3-5c-2.4-2.4-2.8-0.5-5,1.7c-1.3,1.3-5.1,2-6.6,2.8c-2.6,1.3-2.7,2.5-6.1,3.3
		c-2.2,0.5,1.7-3.4,2.2-4.4c1.2-2.5,2.6-3.6,3.9-6.1c2.2-4.5-3.9-1.9-4.4-1.7c-2.4,1.2-5.5,0.7-5.5,4.4c0,3.5-1.7,3.3-3.3,5
		c-2.3,2.3-2.1,4.1-5,5.5c-1.8,0.9-5.1,0.6-7.7,0.6c-2.1,0-2.6-3.5-3.3-5c-1.2-2.5-1.2-5-2.8-6.6c-1.1-1.1-3.9-2.2-6.1-2.2
		C1002.4,730,1003.5,729.7,1001.1,732.7z"/>
	<path id="path9395" class="st3" d="M1071.2,704.1c2.5-1.2,6.8-4.6,10.1-6.2c3.7-1.9,3,5.7,2.3,7c-1.2,2.3-6.4,4.4-7.8,6.2
		c-2.9,3.8-1.2,4.9-6.2,2.3C1066.8,712.1,1070,707,1071.2,704.1z M1066.9,722.1c-2.4-1.2,5.3-1,7.7-2.2c2.7-1.3,5-2.2,7.2-4.4
		c2.1-2.1,4.1-2.2,7.2-2.2c0.2,0,0.4,5-3.3,5c-3.9,0-3.5,1-5,3.9c-1,1.9-5.3,2.8-7.2,3.3c-2.4,0.6-5,0.6-7.7,0.6
		C1064.4,726,1066.4,723.3,1066.9,722.1z M1091.4,700.8c0.3,0,1-3.4,1.4-4.1c0.8-1.5,2.2-2.2,3.3-3.3c0.8-0.8,3.3-1.4,4.4-1.7
		c1.3-0.3,2.9-0.3,4.4-0.3c1.7,0,3.3,0,5,0c1.7,0,2.3,0.7,3,1.4c1.4,1.4,2.5,0.5,2.5,2.8c0,1.4,0,2.8,0,4.1c0,0.3-2.9,1.5-3.3,1.7
		c-1.7,0.9-2.2-0.6-3-1.4c-1.3-1.3-2-1.4-3.9-1.4c-1.3,0-2.5,0.3-3.6,0.6c-1.3,0.3-2.2,1.5-2.2,2.8c0,1.4,0.3,2.3-0.3,3.3
		c-0.2,0.3-4.2,0-4.7,0c-1.8,0-2.2-1-3-1.9C1090.8,702.7,1091.4,701.7,1091.4,700.8z M1097.2,665c-0.4-0.4,1.4-3.1,1.7-3.6
		c0.7-1.4,2.1-1.4,3.6-1.4c1.4,0,2.9,0,3.9,0.3c0.4,0.1-0.2,4.4-0.3,4.7c-0.2,0.7-2.4,1.5-3,1.9c-1.1,0.8-1.3,2.6-1.7,3.3
		c-0.6,1.3-2.3,1.7-3.6,1.7c-1.6,0-2.5-1.4-3-2.5c-0.8-1.6,0.6-2.6,1.1-3C1096.3,665.9,1096.7,665.4,1097.2,665z M1111,664.4
		c0.2-0.2,3.7,0,5,0c1.4,0,2.3,2.6,2.5,3.6c0.3,1.7,0.9,2.8,2.5,3.6c1.3,0.7,2.5,1.7,3.3,2.8c1.2,1.5,2.6,2.5,3,4.1
		c0.4,1.6,1.7,2.2,1.7,4.1c0,0.8,1.1,2.5,1.4,3c0.4,0.9,0,3.1,0,4.1c0,1.9,0.2,2.6-1.7,3c-1.8,0.4-3.1-0.5-4.4-0.8
		c-1.5-0.4-2.8-1-4.1-1.4c-1.1-0.3-2.3-2-3.3-2.8c-1.6-1.2-1.8-1.5-2.2-3.3c-0.2-1,0.3-3.2,0.6-4.1c0.4-1.6,1.2-2.1,0.8-3.6
		c-0.3-1.2-2.1-2.1-2.8-2.8c-1-1-1.8-1.6-2.5-3c-0.5-0.9,0-3.4,0-4.4C1110.7,665.6,1111,666.1,1111,664.4z M1311.3,732.8
		c0-1.3,1.3,2.2,2.2,3c1.2,1.2,2.1,1.4,3.9,1.4c1.5,0,2.4-1.3,3-1.9c0.9-0.9,3.8-0.8,5-1.1c1.3-0.3,2.5,2.4,2.8,3.3
		c0.4,1.7,0.7,2.5,1.4,3.9c0.3,0.7,2.5,1.4,3,1.7c2.1,1,1-1.9-0.3-2.5c-1.8-0.9-0.4-2.9,0-3.3c1.2-1.2,1.3-1.9,3-2.8
		c0.9-0.4,3.6,2.3,4.4,2.8c1,0.6,1.6,2.5,1.9,3.9c0.4,1.7,2.1,2.7,3,3.6c0.9,0.9,2.5,1.4,3.6,1.9c1.5,0.8,2.5,1.8,3.9,2.8
		c1.3,1,1.6,2.1,1.9,3.3c0.3,1.2,0,2.9,0,4.1c0,1.7,1,1.8-0.3,3c-0.8,0.8-3.5-0.4-3.9-0.8c-1.2-1.2-2-2.3-2.5-3.3
		c-0.8-1.6-1.3-2.7-2.5-3.6c-1.3-1-2.3-2-3.3-3c-0.8-0.8-2.8-0.8-4.1-0.8c-1.7,0-2.2,1.3-3.9,1.7c-1.9,0.5-3.7-1.8-4.7-2.8
		c-1.3-1.3-2.2-1.2-3.6-0.8c-0.7,0.2-2.1,2.1-3,2.8c-1.2,0.9-2.7,1.7-4.4,1.7c-1.7,0-3.5,0-5.2,0c-2,0-2.9-0.5-3.3-2.2
		c-0.4-1.7,0.2-3.3-0.6-4.7c-1-1.9-2.4-2.3-3.9-4.1c-0.9-1.2-2-1.5-2.8-3c-0.4-0.8,1.7-2.9,1.9-3.3c0.6-1.1,2.9-2,3.9-2.5
		C1309.4,730.2,1310.8,732,1311.3,732.8z M1330.1,754.6c1.5-0.7-2.3,2.3-3.3,3.6c-1.1,1.5,0.2,3,1.4,3.3c1.4,0.3,3.3,0,4.7,0
		c1.8,0,2.5-2.3,2.5-3.6c0-1.2-1.9-2.3-2.5-3c-0.4-0.5-0.9-0.9-1.4-1.1 M1348.3,766c-0.1-0.1,3.3-2.4,4.1-2.8
		c1.3-0.7,4.6,0.8,5.8,1.1c2,0.5,3.8,1.2,5.8,1.7c2,0.4,2.2-0.3,3,1.4c1,1.9-0.2,2.7-1.1,3.6c-1.1,1.1-1.8,1.3-3.9,0.8
		c-1.8-0.5-2.2-1.4-4.4-0.8c-1.1,0.3-2.5,1.7-3.3,2.5c-0.9,0.9-2.4,1.5-3.3,1.9c-0.8,0.4-3.1-3.2-3.3-3.6c-0.8-1.7-1.4-1.9-0.3-3.9
		C1347.9,767.2,1347.8,767.1,1348.3,766z M1371.7,768.4c0.9-1.5,4-2.2,6.3-2.2c1.6,0,4.1,0.8,5.5,1.4c1.3,0.5,3.6,0.6,5,0.6
		c1.9,0,2.4-0.8,3.6-1.7c1.4-1-0.1-2.9,2.5-1.7c1.4,0.7,1.9,1.9,3.6,2.8c1.9,1,2.9,1.5,4.7,2.2c1.2,0.5,1.1,2.6,1.1,3.9
		c0,1.2-2.7,2.4-3.3,3c-1.2,1.2-4.8,0.6-6.3,0.6c-1.5,0-3,0-4.4-0.3c-1.6-0.3-2.8-0.6-4.1-0.3c-1.5,0.4-2.4,2.4-3.3,3.3
		c-1.2,1.2-3.9,1.1-5.5,1.1c-2.3,0-4.3,0.1-5.8-1.4c-1.4-1.4-2-1.7-3.3-3c-1.2-1.2,0-3.7,0.6-4.4
		C1369.8,770.5,1369.5,769.3,1371.7,768.4z"/>
	<path id="path10396" class="st5" d="M588.5,388.2c3.2-1,11.5-0.8,17.2-0.8c5.2,0,9.3-0.4,14-1.6c5.2-1.3,8.1-3.3,10.9-5.5
		c2-1.5,10.8-0.2,13.3-0.8c3.6-0.9,8-2.7,10.1-7c1.4-2.9,4.9-5.6,7-7.8c2.5-2.5,6.9-4.2,9.4-5.5c3.4-1.7,7-5.4,10.1-7
		c3.8-1.9,5.1-3.5,7.8-6.2c2.3-2.3,0.6-10,0-12.5c-1.1-4.4-3.1-5.8-3.1-10.9c0-5.6,0.1-6.5,3.9-9.4c4.1-3.1,5-6.1,6.2-10.9
		c1.3-5.1,2.6-6.7,4.7-10.9c2.3-4.6,2.2-5.3,5.5-8.6c2.9-2.9,11-3.9,14.8-3.9c5.4,0,4.7,4.7,4.7,9.4c0,4.9,0,9.9,0,14.8
		c0,3.8-1.5,6.8-2.3,10.1c-0.9,3.8,0,9.3,0,13.3c0,4.6,1.3,7.6,2.3,11.7c1.2,4.9,0,7.5,3.1,11.7c2.6,3.5,4.7,7.8,7,10.9
		c0.7,0.9,1.6,1.6,2.3,2.3c3,3,5.8,4.2,7.8,6.2c1.3,1.3,0,11.5,0,13.3c0,4.2,0,8.3,0,12.5c0,4.4,0.7,7.5,1.6,10.9
		c1.3,5.1-0.9,6.9,2.3,10.1c3.2,3.2,8.3-0.6,10.1-1.6c3.1-1.5,6.4-2.8,10.1-4.7c3.8-1.9,10.4,1.2,13.3,2.3c4.8,1.9,3.7,6.4,10.1,1.6
		c4-3,9.9-1.4,14,0c6.7,2.2,8.4,8.1,10.9,13.3c2.3,4.5,8.7,5.6,11.7,8.6c3.9,3.9,9.1,5.5,14,5.5c3.5,0,7.4-3.1,12.5-3.1
		c4.1,0,8.9,0.8,13.3,0.8c7.8,0,7,3.8,7,10.1c0,6.4-1.5,8.6,5.5,8.6c4.7,0,8.9-1.2,13.3-2.3c4.4-1.1,9.5,7.3,10.9,10.1
		c2.5,5,8.2,7.7,12.5,10.9c4.1,3.1,6.2,7.8,9.4,10.9c3.6,3.6,3.6,9.4,7.8,2.3c2.1-3.5,3.1-5.1,7.8-6.2c5.2-1.3,8.5,0.9,11.7-2.3
		c2.9-2.9,2.5-7.2,5.5-10.1c3.7-3.7,8-3,12.5-3.9c2.9-0.6,6.9-4.6,8.6-6.2c3.1-3.1,7.8-5.4,10.9-7.8c1.3-1,11.2,7.8,13.3,9.4
		c4.7,3.5,8.4,5.9,10.9,10.9c2.9,5.8,10.8,13.5,15.6,17.2c3.9,2.9,7.1,5.6,9.4,10.1c2.3,4.6,2.3,6.9,2.3,12.5c0,6.4,5.7,8,9.4,11.7
		c4.6,4.6,9.1,6.8,13.3,10.9c4.8,4.8,9.7,6.2,13.3,10.9c2.4,3.2,0.6,0.9,1.6,2.3c1.6,2.1,0,12,0,14.8c0,1.7,3.8,8.4,4.7,10.1
		c1.9,3.8,2.1,8,3.9,11.7c1.5,3,0.8,9,0.8,13.3c0,4.1,1.6,6.8,1.6,11.7c0,2.7,4.6,5.1,5.5,8.6c1.4,5.8-0.5,6.5,3.1,10.1
		c1.5,1.5,1.8,8.1,2.3,10.1c1.2,4.9,3.7,6.2-3.1,6.2c-5,0-9.1,1.1-11.7-1.6c-3.4-3.4-8.2-2.8-10.1-5.5c-1.8-2.4-9.1-4.4-11.7-7
		c-3.8-3.8-7-8.3-11.7-10.1c-1.9-0.8-5.9-5.9-7.8-7.8c-3-3-3.1-4.6-3.1-9.4c0-4-2.8-6.7-5.5-9.4c-2.8-2.8-2.9-7-3.9-10.9
		c-1-3.9-3.4-7.4-5.5-10.1c-2-2.7-2.6-6.8-3.9-9.4c-1.4-2.9-4.9-5-7-7.8c-1.8-2.4-6.8-1.6-10.1-1.6c-5.9,0-7.4,0.4-10.1,3.1
		c-2.1,2.1-8.6,2.5-10.9,3.1c-3.4,0.8-7.1,1-10.9,0c-4.3-1.1-5.3-3.5-10.1-4.7c-4.9-1.2-7.2-0.3-10.9-3.1c-2.7-2.1-6.2-4.7-8.6-7
		c-2.2-2.2-9.4-2.3-12.5-2.3c-4.5,0-7.7,0.3-10.1,1.6c-1.6,0.8-2.6-2.6-3.9-3.9c-1.4,0.7-8.9-8.9-9.4-9.4c-2.9-2.9-5.9-4.4-8.6-7
		c-2.1-2.1-7.1-5.1-9.4-6.2c-3.7-1.8-6.6-3.3-9.4-4.7c-3.8-1.9-5.5-3.5-9.4-5.5c-3.7-1.8-6.2-4.7-9.4-6.2c-3.1-1.5-5-4.4-8.6-6.2
		c-4.4-2.2-6.1-3.7-8.6-7c-1.9-2.5-5.1-4.3-7-6.2c-3.3-3.3-4.3-5-7.8-8.6c-2.6-2.6-4.5-4.5-7-7c-2.9-2.9-4.5-5.3-7-7.8
		c-1.8-1.8-4.3-4.1-7-5.5c-3.6-1.8-7.2-4.8-9.4-7c-2.7-2.7-7.4-3-10.9-3.9c-4.3-1.1-7.3-2-11.7-3.1c-3.3-0.8-7.4-3.2-10.1-3.9
		c-3.2-0.8-9.3-4.6-11.7-7c-2-2-8.3-2.5-10.9-3.1c-3-0.8-7-2.3-10.9-2.3c-3.2,0-8.3-2.9-12.5-3.9c-4.2-1.1-7.7-2.1-11.7-3.1
		c-3.9-1-7.6-2.2-10.9-3.9c-3.3-1.6-4.6-3.1-7.8-6.2c-2.6-2.6-7.3-4.4-10.9-6.2c-3.6-1.8-8.1-2.1-11.7-3.9
		c-3.1-1.6-8.7-0.8-12.5-0.8c-4.7,0-9.4,0-14,0c-4.2,0-8.3,0-12.5,0c-4.3,0-7.5,0.8-11.7,0.8c-3.5,0-8.9,4-12.5,5.5
		c-3.7,1.5-8.6,1.4-12.5,2.3c-3.8,1-6.5,5.5-10.9,5.5c-1.8-3.5-2.3-9.4,0-11.7C586.5,395.7,584.8,388.2,588.5,388.2z"/>
	<path id="text16454" class="st0" d="M483.8,598.3v-15.7h2.1v13.9h7.8v1.9H483.8z M503.3,596.9c-0.7,0.6-1.4,1-2.1,1.3
		s-1.4,0.4-2.1,0.4c-1.3,0-2.2-0.3-2.9-0.9s-1-1.4-1-2.3c0-0.6,0.1-1.1,0.4-1.5s0.6-0.8,1-1.1s0.9-0.5,1.4-0.6
		c0.4-0.1,1-0.2,1.7-0.3c1.6-0.2,2.7-0.4,3.4-0.7c0-0.3,0-0.4,0-0.5c0-0.8-0.2-1.3-0.5-1.7c-0.5-0.4-1.2-0.7-2.2-0.7
		c-0.9,0-1.6,0.2-2,0.5s-0.8,0.9-1,1.7l-1.9-0.3c0.2-0.8,0.5-1.5,0.8-2s1-0.9,1.7-1.1c0.7-0.3,1.6-0.4,2.6-0.4c1,0,1.8,0.1,2.4,0.3
		c0.6,0.2,1.1,0.5,1.3,0.9c0.3,0.3,0.5,0.8,0.6,1.3c0.1,0.3,0.1,0.9,0.1,1.8v2.6c0,1.8,0,2.9,0.1,3.4c0.1,0.5,0.2,0.9,0.5,1.4h-2
		C503.5,597.9,503.4,597.4,503.3,596.9L503.3,596.9z M503.2,592.6c-0.7,0.3-1.8,0.5-3.2,0.7c-0.8,0.1-1.4,0.2-1.7,0.4
		c-0.3,0.1-0.6,0.4-0.8,0.6s-0.3,0.6-0.3,0.9c0,0.5,0.2,0.9,0.6,1.3s1,0.5,1.7,0.5c0.7,0,1.4-0.2,2-0.5s1-0.8,1.3-1.3
		c0.2-0.4,0.3-1.1,0.3-1.9V592.6z M507.4,592.6c0-2.1,0.6-3.7,1.8-4.7c1-0.8,2.2-1.3,3.6-1.3c1.6,0,2.9,0.5,3.8,1.5
		c1,1,1.5,2.4,1.5,4.3c0,1.5-0.2,2.6-0.7,3.5s-1.1,1.5-1.9,2c-0.8,0.5-1.8,0.7-2.8,0.7c-1.6,0-2.9-0.5-3.9-1.5
		S507.4,594.5,507.4,592.6L507.4,592.6z M509.4,592.6c0,1.5,0.3,2.6,1,3.3s1.4,1.1,2.4,1.1c1,0,1.8-0.4,2.4-1.1s1-1.8,1-3.3
		c0-1.4-0.3-2.5-1-3.2s-1.4-1.1-2.4-1.1c-1,0-1.8,0.4-2.4,1.1C509.7,590.1,509.4,591.1,509.4,592.6L509.4,592.6z M520.4,598.3v-11.4
		h1.7v1.6c0.8-1.3,2-1.9,3.6-1.9c0.7,0,1.3,0.1,1.9,0.4s1,0.6,1.3,1c0.3,0.4,0.5,0.9,0.6,1.4c0.1,0.4,0.1,1,0.1,1.9v7h-1.9v-6.9
		c0-0.8-0.1-1.4-0.2-1.8c-0.2-0.4-0.4-0.7-0.8-0.9c-0.4-0.2-0.8-0.3-1.3-0.3c-0.8,0-1.5,0.3-2.1,0.8s-0.9,1.5-0.9,3v6.2H520.4z"/>
	<path id="text16458" class="st0" d="M372.9,496.8l2-0.2c0.1,0.8,0.3,1.4,0.6,1.9s0.9,0.9,1.6,1.2c0.7,0.3,1.5,0.5,2.4,0.5
		c0.8,0,1.5-0.1,2.1-0.4c0.6-0.2,1.1-0.6,1.4-1c0.3-0.4,0.4-0.9,0.4-1.3c0-0.5-0.1-0.9-0.4-1.3c-0.3-0.4-0.8-0.7-1.4-0.9
		c-0.4-0.2-1.4-0.4-2.8-0.8c-1.4-0.3-2.5-0.7-3-1c-0.8-0.4-1.3-0.9-1.7-1.5c-0.4-0.6-0.6-1.2-0.6-2c0-0.8,0.2-1.5,0.7-2.2
		c0.5-0.7,1.1-1.2,2-1.6c0.9-0.4,1.8-0.5,2.9-0.5c1.2,0,2.2,0.2,3.1,0.6c0.9,0.4,1.6,0.9,2.1,1.7c0.5,0.7,0.7,1.6,0.8,2.5l-2,0.2
		c-0.1-1-0.5-1.7-1.1-2.3c-0.6-0.5-1.5-0.8-2.7-0.8c-1.3,0-2.2,0.2-2.8,0.7s-0.9,1-0.9,1.7c0,0.6,0.2,1,0.6,1.4
		c0.4,0.4,1.4,0.7,3.1,1.1c1.7,0.4,2.9,0.7,3.5,1c0.9,0.4,1.6,1,2,1.6c0.4,0.6,0.7,1.4,0.7,2.2c0,0.8-0.2,1.6-0.7,2.4
		c-0.5,0.7-1.2,1.3-2.1,1.7c-0.9,0.4-1.9,0.6-3,0.6c-1.4,0-2.6-0.2-3.6-0.6s-1.7-1-2.3-1.9C373.3,498.8,373,497.8,372.9,496.8
		L372.9,496.8z M395.5,500.4c-0.7,0.6-1.4,1-2.1,1.3s-1.4,0.4-2.1,0.4c-1.3,0-2.2-0.3-2.9-0.9s-1-1.4-1-2.3c0-0.6,0.1-1.1,0.4-1.5
		s0.6-0.8,1-1.1s0.9-0.5,1.4-0.6c0.4-0.1,1-0.2,1.7-0.3c1.6-0.2,2.7-0.4,3.4-0.7c0-0.3,0-0.4,0-0.5c0-0.8-0.2-1.3-0.5-1.7
		c-0.5-0.4-1.2-0.7-2.2-0.7c-0.9,0-1.6,0.2-2,0.5c-0.4,0.3-0.8,0.9-1,1.7l-1.9-0.3c0.2-0.8,0.5-1.5,0.8-2c0.4-0.5,1-0.9,1.7-1.1
		c0.7-0.3,1.6-0.4,2.6-0.4c1,0,1.8,0.1,2.4,0.3c0.6,0.2,1.1,0.5,1.3,0.9c0.3,0.3,0.5,0.8,0.6,1.3c0.1,0.3,0.1,0.9,0.1,1.8v2.6
		c0,1.8,0,2.9,0.1,3.4c0.1,0.5,0.2,0.9,0.5,1.4h-2C395.7,501.5,395.6,501,395.5,500.4L395.5,500.4z M395.4,496.1
		c-0.7,0.3-1.8,0.5-3.2,0.7c-0.8,0.1-1.4,0.2-1.7,0.4c-0.3,0.1-0.6,0.4-0.8,0.6s-0.3,0.6-0.3,0.9c0,0.5,0.2,0.9,0.6,1.3
		s1,0.5,1.7,0.5c0.7,0,1.4-0.2,2-0.5s1-0.8,1.3-1.3c0.2-0.4,0.3-1.1,0.3-1.9V496.1z M400.4,488.3v-2.2h1.9v2.2H400.4z M400.4,501.9
		v-11.4h1.9v11.4H400.4z M405.2,501.9v-11.4h1.7v1.6c0.8-1.3,2-1.9,3.6-1.9c0.7,0,1.3,0.1,1.9,0.4c0.6,0.2,1,0.6,1.3,1
		c0.3,0.4,0.5,0.9,0.6,1.4c0.1,0.4,0.1,1,0.1,1.9v7h-1.9v-6.9c0-0.8-0.1-1.4-0.2-1.8c-0.2-0.4-0.4-0.7-0.8-0.9
		c-0.4-0.2-0.8-0.3-1.3-0.3c-0.8,0-1.5,0.3-2.1,0.8c-0.6,0.5-0.9,1.5-0.9,3v6.2H405.2z M421.7,500.1l0.3,1.7c-0.5,0.1-1,0.2-1.5,0.2
		c-0.7,0-1.2-0.1-1.6-0.3s-0.7-0.5-0.8-0.9s-0.2-1.1-0.2-2.3v-6.6h-1.4v-1.5h1.4v-2.8l1.9-1.2v4h1.9v1.5h-1.9v6.7
		c0,0.6,0,0.9,0.1,1.1c0.1,0.2,0.2,0.3,0.3,0.4s0.4,0.1,0.7,0.1C421.1,500.2,421.4,500.2,421.7,500.1L421.7,500.1z M441.9,500.2
		c1,0.7,1.9,1.2,2.7,1.5l-0.6,1.5c-1.1-0.4-2.3-1.1-3.4-1.9c-1.2,0.7-2.5,1-3.9,1c-1.4,0-2.7-0.3-3.9-1s-2.1-1.7-2.7-2.9
		c-0.6-1.2-0.9-2.6-0.9-4.2c0-1.6,0.3-3,0.9-4.2c0.6-1.3,1.5-2.2,2.7-2.9c1.2-0.7,2.5-1,3.9-1c1.5,0,2.8,0.3,3.9,1
		c1.2,0.7,2.1,1.7,2.7,2.9c0.6,1.2,0.9,2.6,0.9,4.2c0,1.3-0.2,2.5-0.6,3.5C443.3,498.5,442.7,499.4,441.9,500.2L441.9,500.2z
		 M437.3,497.5c1.2,0.3,2.2,0.8,3,1.5c1.2-1.1,1.8-2.8,1.8-5c0-1.3-0.2-2.4-0.6-3.3c-0.4-1-1.1-1.7-1.9-2.2
		c-0.8-0.5-1.8-0.8-2.8-0.8c-1.6,0-2.8,0.5-3.9,1.6s-1.5,2.7-1.5,4.8c0,2,0.5,3.6,1.5,4.7s2.3,1.6,3.9,1.6c0.7,0,1.4-0.1,2.1-0.4
		c-0.7-0.4-1.3-0.7-2.1-0.9L437.3,497.5z M454.3,501.9v-1.7c-0.9,1.3-2.1,1.9-3.6,1.9c-0.7,0-1.3-0.1-1.9-0.4s-1-0.6-1.3-1
		c-0.3-0.4-0.5-0.9-0.6-1.4c-0.1-0.4-0.1-1-0.1-1.8v-7.1h1.9v6.3c0,1,0,1.7,0.1,2c0.1,0.5,0.4,0.9,0.8,1.2s0.9,0.4,1.5,0.4
		s1.1-0.1,1.6-0.4c0.5-0.3,0.9-0.7,1.1-1.2c0.2-0.5,0.3-1.3,0.3-2.2v-6.1h1.9v11.4H454.3z M466.8,498.2l2,0.2
		c-0.3,1.2-0.9,2.1-1.8,2.7c-0.9,0.6-1.9,1-3.3,1c-1.7,0-3-0.5-4-1.5s-1.5-2.5-1.5-4.3c0-1.9,0.5-3.4,1.5-4.5c1-1.1,2.3-1.6,3.8-1.6
		c1.5,0,2.8,0.5,3.7,1.6c1,1,1.5,2.5,1.5,4.4c0,0.1,0,0.3,0,0.5h-8.5c0.1,1.3,0.4,2.2,1.1,2.9s1.4,1,2.4,1c0.7,0,1.3-0.2,1.8-0.6
		C466.2,499.6,466.6,499,466.8,498.2L466.8,498.2z M460.5,495.1h6.4c-0.1-1-0.3-1.7-0.7-2.2c-0.6-0.7-1.4-1.1-2.4-1.1
		c-0.9,0-1.6,0.3-2.2,0.9C460.9,493.3,460.6,494.1,460.5,495.1L460.5,495.1z M471.3,501.9v-11.4h1.7v1.6c0.8-1.3,2-1.9,3.6-1.9
		c0.7,0,1.3,0.1,1.9,0.4c0.6,0.2,1,0.6,1.3,1c0.3,0.4,0.5,0.9,0.6,1.4c0.1,0.4,0.1,1,0.1,1.9v7h-1.9v-6.9c0-0.8-0.1-1.4-0.2-1.8
		c-0.2-0.4-0.4-0.7-0.8-0.9c-0.4-0.2-0.8-0.3-1.3-0.3c-0.8,0-1.5,0.3-2.1,0.8c-0.6,0.5-0.9,1.5-0.9,3v6.2H471.3z M487.8,500.1
		l0.3,1.7c-0.5,0.1-1,0.2-1.5,0.2c-0.7,0-1.2-0.1-1.6-0.3s-0.7-0.5-0.8-0.9s-0.2-1.1-0.2-2.3v-6.6h-1.4v-1.5h1.4v-2.8l1.9-1.2v4h1.9
		v1.5h-1.9v6.7c0,0.6,0,0.9,0.1,1.1c0.1,0.2,0.2,0.3,0.3,0.4s0.4,0.1,0.7,0.1C487.1,500.2,487.4,500.2,487.8,500.1L487.8,500.1z
		 M489.6,488.3v-2.2h1.9v2.2H489.6z M489.6,501.9v-11.4h1.9v11.4H489.6z M494.5,501.9v-11.4h1.7v1.6c0.8-1.3,2-1.9,3.6-1.9
		c0.7,0,1.3,0.1,1.9,0.4c0.6,0.2,1,0.6,1.3,1c0.3,0.4,0.5,0.9,0.6,1.4c0.1,0.4,0.1,1,0.1,1.9v7h-1.9v-6.9c0-0.8-0.1-1.4-0.2-1.8
		c-0.2-0.4-0.4-0.7-0.8-0.9c-0.4-0.2-0.8-0.3-1.3-0.3c-0.8,0-1.5,0.3-2.1,0.8c-0.6,0.5-0.9,1.5-0.9,3v6.2H494.5z"/>
	<path id="text16462" class="st0" d="M267.8,421.9l2.1,0.5c-0.4,1.7-1.2,3-2.4,3.9c-1.1,0.9-2.5,1.3-4.2,1.3c-1.7,0-3.1-0.3-4.1-1
		s-1.9-1.7-2.4-3s-0.8-2.7-0.8-4.2c0-1.6,0.3-3.1,0.9-4.3c0.6-1.2,1.5-2.1,2.7-2.8c1.2-0.6,2.4-1,3.8-1c1.6,0,2.9,0.4,4,1.2
		c1.1,0.8,1.8,1.9,2.2,3.4l-2.1,0.5c-0.4-1.1-0.9-2-1.6-2.5c-0.7-0.5-1.6-0.8-2.6-0.8c-1.2,0-2.2,0.3-3,0.9s-1.4,1.4-1.7,2.3
		c-0.3,1-0.5,2-0.5,3c0,1.3,0.2,2.5,0.6,3.5c0.4,1,1,1.7,1.8,2.2s1.7,0.7,2.7,0.7c1.2,0,2.2-0.3,3-1
		C266.9,424.2,267.5,423.2,267.8,421.9L267.8,421.9z M279.6,426c-0.7,0.6-1.4,1-2.1,1.3c-0.7,0.3-1.4,0.4-2.1,0.4
		c-1.3,0-2.2-0.3-2.9-0.9s-1-1.4-1-2.3c0-0.6,0.1-1.1,0.4-1.5c0.3-0.5,0.6-0.8,1-1.1s0.9-0.5,1.4-0.6c0.4-0.1,1-0.2,1.7-0.3
		c1.6-0.2,2.7-0.4,3.4-0.7c0-0.3,0-0.4,0-0.5c0-0.8-0.2-1.3-0.5-1.7c-0.5-0.4-1.2-0.7-2.2-0.7c-0.9,0-1.6,0.2-2,0.5
		c-0.4,0.3-0.8,0.9-1,1.7l-1.9-0.3c0.2-0.8,0.5-1.5,0.8-2c0.4-0.5,1-0.9,1.7-1.1s1.6-0.4,2.6-0.4c1,0,1.8,0.1,2.4,0.3
		c0.6,0.2,1.1,0.5,1.3,0.9c0.3,0.3,0.5,0.8,0.6,1.3c0.1,0.3,0.1,0.9,0.1,1.8v2.6c0,1.8,0,2.9,0.1,3.4c0.1,0.5,0.2,0.9,0.5,1.4h-2
		C279.8,427,279.7,426.6,279.6,426L279.6,426z M279.5,421.7c-0.7,0.3-1.8,0.5-3.2,0.7c-0.8,0.1-1.4,0.2-1.7,0.4s-0.6,0.4-0.8,0.6
		c-0.2,0.3-0.3,0.6-0.3,0.9c0,0.5,0.2,0.9,0.6,1.3c0.4,0.3,1,0.5,1.7,0.5c0.7,0,1.4-0.2,2-0.5s1-0.8,1.3-1.3
		c0.2-0.4,0.3-1.1,0.3-1.9V421.7z M284.4,427.4V416h1.7v1.6c0.4-0.6,0.8-1,1.4-1.3c0.6-0.3,1.3-0.5,2-0.5c0.8,0,1.5,0.2,2.1,0.5
		c0.5,0.4,0.9,0.8,1.1,1.5c0.9-1.3,2.1-2,3.5-2c1.1,0,2,0.3,2.6,0.9c0.6,0.6,0.9,1.6,0.9,2.9v7.8H298v-7.2c0-0.8-0.1-1.3-0.2-1.7
		c-0.1-0.3-0.4-0.6-0.7-0.8c-0.3-0.2-0.7-0.3-1.2-0.3c-0.8,0-1.5,0.3-2,0.8c-0.5,0.5-0.8,1.4-0.8,2.6v6.6h-1.9V420
		c0-0.9-0.2-1.5-0.5-1.9s-0.8-0.6-1.5-0.6c-0.5,0-1,0.1-1.5,0.4c-0.5,0.3-0.8,0.7-1,1.3c-0.2,0.6-0.3,1.3-0.3,2.4v5.9H284.4z
		 M304.5,427.4h-1.8v-15.7h1.9v5.6c0.8-1,1.9-1.5,3.1-1.5c0.7,0,1.4,0.1,2,0.4c0.6,0.3,1.1,0.7,1.5,1.2c0.4,0.5,0.7,1.1,1,1.9
		c0.2,0.7,0.3,1.5,0.3,2.3c0,2-0.5,3.5-1.5,4.5s-2.1,1.6-3.5,1.6c-1.3,0-2.4-0.6-3.2-1.7V427.4z M304.5,421.7c0,1.4,0.2,2.4,0.6,3
		c0.6,1,1.4,1.5,2.5,1.5c0.8,0,1.6-0.4,2.2-1.1c0.6-0.7,0.9-1.8,0.9-3.3c0-1.5-0.3-2.6-0.9-3.3s-1.3-1.1-2.1-1.1
		c-0.8,0-1.6,0.4-2.2,1.1C304.8,419.2,304.5,420.3,304.5,421.7L304.5,421.7z M315,427.4V416h1.7v1.7c0.4-0.8,0.9-1.3,1.2-1.6
		c0.4-0.3,0.8-0.4,1.2-0.4c0.7,0,1.3,0.2,2,0.6l-0.7,1.8c-0.5-0.3-0.9-0.4-1.4-0.4c-0.4,0-0.8,0.1-1.1,0.4c-0.3,0.3-0.6,0.6-0.7,1.1
		c-0.2,0.7-0.3,1.4-0.3,2.3v6H315z M329.8,426c-0.7,0.6-1.4,1-2.1,1.3c-0.7,0.3-1.4,0.4-2.1,0.4c-1.3,0-2.2-0.3-2.9-0.9
		s-1-1.4-1-2.3c0-0.6,0.1-1.1,0.4-1.5c0.3-0.5,0.6-0.8,1-1.1s0.9-0.5,1.4-0.6c0.4-0.1,1-0.2,1.7-0.3c1.6-0.2,2.7-0.4,3.4-0.7
		c0-0.3,0-0.4,0-0.5c0-0.8-0.2-1.3-0.5-1.7c-0.5-0.4-1.2-0.7-2.2-0.7c-0.9,0-1.6,0.2-2,0.5c-0.4,0.3-0.8,0.9-1,1.7l-1.9-0.3
		c0.2-0.8,0.5-1.5,0.8-2c0.4-0.5,1-0.9,1.7-1.1s1.6-0.4,2.6-0.4c1,0,1.8,0.1,2.4,0.3c0.6,0.2,1.1,0.5,1.3,0.9
		c0.3,0.3,0.5,0.8,0.6,1.3c0.1,0.3,0.1,0.9,0.1,1.8v2.6c0,1.8,0,2.9,0.1,3.4c0.1,0.5,0.2,0.9,0.5,1.4h-2
		C330,427,329.9,426.6,329.8,426L329.8,426z M329.6,421.7c-0.7,0.3-1.8,0.5-3.2,0.7c-0.8,0.1-1.4,0.2-1.7,0.4s-0.6,0.4-0.8,0.6
		c-0.2,0.3-0.3,0.6-0.3,0.9c0,0.5,0.2,0.9,0.6,1.3c0.4,0.3,1,0.5,1.7,0.5c0.7,0,1.4-0.2,2-0.5s1-0.8,1.3-1.3
		c0.2-0.4,0.3-1.1,0.3-1.9V421.7z M334.6,413.9v-2.2h1.9v2.2H334.6z M334.6,427.4V416h1.9v11.4H334.6z"/>
	<path id="text16470" class="st0" d="M213.7,291v-15.7h2.1v13.9h7.8v1.9H213.7z M233.6,287.3l2,0.2c-0.3,1.2-0.9,2.1-1.8,2.7
		c-0.9,0.6-1.9,1-3.3,1c-1.7,0-3-0.5-4-1.5c-1-1-1.5-2.5-1.5-4.3c0-1.9,0.5-3.4,1.5-4.5c1-1.1,2.3-1.6,3.8-1.6
		c1.5,0,2.8,0.5,3.7,1.6c1,1,1.5,2.5,1.5,4.4c0,0.1,0,0.3,0,0.5h-8.5c0.1,1.3,0.4,2.2,1.1,2.9s1.4,1,2.4,1c0.7,0,1.3-0.2,1.8-0.6
		C232.9,288.8,233.3,288.2,233.6,287.3L233.6,287.3z M227.3,284.2h6.4c-0.1-1-0.3-1.7-0.7-2.2c-0.6-0.7-1.4-1.1-2.4-1.1
		c-0.9,0-1.6,0.3-2.2,0.9C227.7,282.4,227.3,283.2,227.3,284.2L227.3,284.2z M238,291v-11.4h1.7v1.6c0.8-1.3,2-1.9,3.6-1.9
		c0.7,0,1.3,0.1,1.9,0.4c0.6,0.2,1,0.6,1.3,1c0.3,0.4,0.5,0.9,0.6,1.4c0.1,0.4,0.1,1,0.1,1.9v7h-1.9v-6.9c0-0.8-0.1-1.4-0.2-1.8
		c-0.2-0.4-0.4-0.7-0.8-0.9c-0.4-0.2-0.8-0.3-1.3-0.3c-0.8,0-1.5,0.3-2.1,0.8c-0.6,0.5-0.9,1.5-0.9,3v6.2H238z M249.5,287.6l1.9-0.3
		c0.1,0.8,0.4,1.4,0.9,1.8s1.2,0.6,2.1,0.6c0.9,0,1.5-0.2,2-0.5c0.4-0.4,0.6-0.8,0.6-1.3c0-0.4-0.2-0.8-0.6-1
		c-0.3-0.2-0.9-0.4-2-0.7c-1.4-0.4-2.4-0.7-2.9-0.9c-0.5-0.3-1-0.6-1.2-1.1s-0.4-1-0.4-1.5c0-0.5,0.1-1,0.3-1.4
		c0.2-0.4,0.5-0.8,1-1.1c0.3-0.2,0.7-0.4,1.2-0.6c0.5-0.2,1.1-0.2,1.7-0.2c0.9,0,1.7,0.1,2.4,0.4c0.7,0.3,1.2,0.6,1.5,1
		c0.3,0.4,0.5,1,0.7,1.8l-1.9,0.3c-0.1-0.6-0.3-1-0.7-1.4c-0.4-0.3-1-0.5-1.7-0.5c-0.9,0-1.5,0.1-1.9,0.4c-0.4,0.3-0.6,0.6-0.6,1
		c0,0.3,0.1,0.5,0.2,0.7c0.2,0.2,0.4,0.4,0.7,0.5c0.2,0.1,0.8,0.2,1.7,0.5c1.4,0.4,2.3,0.7,2.9,0.9c0.5,0.2,1,0.6,1.3,1
		c0.3,0.4,0.5,1,0.5,1.7c0,0.6-0.2,1.3-0.6,1.8s-0.9,1-1.6,1.3s-1.5,0.5-2.4,0.5c-1.5,0-2.6-0.3-3.4-0.9S249.7,288.8,249.5,287.6
		L249.5,287.6z"/>
	<path id="text16478" class="st0" d="M117,354.4l6-15.7h2.2l6.4,15.7h-2.4l-1.8-4.8h-6.6l-1.7,4.8H117z M121.5,347.9h5.3l-1.6-4.4
		c-0.5-1.3-0.9-2.4-1.1-3.3c-0.2,1-0.5,2-0.8,3L121.5,347.9z M133.2,354.4V343h1.7v1.7c0.4-0.8,0.9-1.3,1.2-1.6s0.8-0.4,1.2-0.4
		c0.7,0,1.3,0.2,2,0.6l-0.7,1.8c-0.5-0.3-0.9-0.4-1.4-0.4c-0.4,0-0.8,0.1-1.1,0.4c-0.3,0.3-0.6,0.6-0.7,1.1
		c-0.2,0.7-0.3,1.4-0.3,2.3v6H133.2z M140.5,354.4V343h1.7v1.7c0.4-0.8,0.9-1.3,1.2-1.6s0.8-0.4,1.2-0.4c0.7,0,1.3,0.2,2,0.6
		l-0.7,1.8c-0.5-0.3-0.9-0.4-1.4-0.4c-0.4,0-0.8,0.1-1.1,0.4c-0.3,0.3-0.6,0.6-0.7,1.1c-0.2,0.7-0.3,1.4-0.3,2.3v6H140.5z
		 M155.3,353c-0.7,0.6-1.4,1-2.1,1.3s-1.4,0.4-2.1,0.4c-1.3,0-2.2-0.3-2.9-0.9s-1-1.4-1-2.3c0-0.6,0.1-1.1,0.4-1.5
		c0.3-0.5,0.6-0.8,1-1.1c0.4-0.3,0.9-0.5,1.4-0.6c0.4-0.1,1-0.2,1.7-0.3c1.6-0.2,2.7-0.4,3.4-0.7c0-0.3,0-0.4,0-0.5
		c0-0.8-0.2-1.3-0.5-1.7c-0.5-0.4-1.2-0.7-2.2-0.7c-0.9,0-1.6,0.2-2,0.5c-0.4,0.3-0.8,0.9-1,1.7l-1.9-0.3c0.2-0.8,0.5-1.5,0.8-2
		c0.4-0.5,1-0.9,1.7-1.1c0.7-0.3,1.6-0.4,2.6-0.4c1,0,1.8,0.1,2.4,0.3c0.6,0.2,1.1,0.5,1.3,0.9c0.3,0.3,0.5,0.8,0.6,1.3
		c0.1,0.3,0.1,0.9,0.1,1.8v2.6c0,1.8,0,2.9,0.1,3.4c0.1,0.5,0.2,0.9,0.5,1.4h-2C155.5,354,155.4,353.5,155.3,353L155.3,353z
		 M155.2,348.7c-0.7,0.3-1.8,0.5-3.2,0.7c-0.8,0.1-1.4,0.2-1.7,0.4c-0.3,0.1-0.6,0.4-0.8,0.6c-0.2,0.3-0.3,0.6-0.3,0.9
		c0,0.5,0.2,0.9,0.6,1.3c0.4,0.3,1,0.5,1.7,0.5c0.7,0,1.4-0.2,2-0.5c0.6-0.3,1-0.8,1.3-1.3c0.2-0.4,0.3-1.1,0.3-1.9V348.7z
		 M159.3,351l1.9-0.3c0.1,0.8,0.4,1.4,0.9,1.8s1.2,0.6,2.1,0.6c0.9,0,1.5-0.2,2-0.5c0.4-0.4,0.6-0.8,0.6-1.3c0-0.4-0.2-0.8-0.6-1
		c-0.3-0.2-0.9-0.4-2-0.7c-1.4-0.4-2.4-0.7-2.9-0.9s-1-0.6-1.2-1.1s-0.4-1-0.4-1.5c0-0.5,0.1-1,0.3-1.4c0.2-0.4,0.5-0.8,1-1.1
		c0.3-0.2,0.7-0.4,1.2-0.6c0.5-0.2,1.1-0.2,1.7-0.2c0.9,0,1.7,0.1,2.4,0.4c0.7,0.3,1.2,0.6,1.5,1c0.3,0.4,0.5,1,0.7,1.8l-1.9,0.3
		c-0.1-0.6-0.3-1-0.7-1.4c-0.4-0.3-1-0.5-1.7-0.5c-0.9,0-1.5,0.1-1.9,0.4c-0.4,0.3-0.6,0.6-0.6,1c0,0.3,0.1,0.5,0.2,0.7
		c0.2,0.2,0.4,0.4,0.7,0.5c0.2,0.1,0.8,0.2,1.7,0.5c1.4,0.4,2.3,0.7,2.9,0.9c0.5,0.2,1,0.6,1.3,1c0.3,0.4,0.5,1,0.5,1.7
		c0,0.6-0.2,1.3-0.6,1.8c-0.4,0.6-0.9,1-1.6,1.3s-1.5,0.5-2.4,0.5c-1.5,0-2.6-0.3-3.4-0.9S159.6,352.2,159.3,351L159.3,351z"/>
</g>
</svg>
